<?xml version="1.0" standalone="no"?>
<!DOCTYPE svg PUBLIC "-//W3C//DTD SVG 1.1//EN" "http://www.w3.org/Graphics/SVG/1.1/DTD/svg11.dtd" >
<svg>
<metadata>
Created by FontForge 20090914 at Fri Sep 22 06:34:20 2017
 By www-data
&#194;&#169; Dutch Design: Albert-Jan Pool, 1995. Published by FontShop International FontFont release 15
</metadata>
<defs>
<font id="DINBlackAlternate" horiz-adv-x="500" >
  <font-face 
    font-family="DIN"
    font-weight="400"
    font-stretch="normal"
    units-per-em="1000"
    panose-1="0 0 4 0 0 0 0 0 0 0"
    ascent="800"
    descent="-200"
    x-height="538"
    cap-height="712"
    bbox="-122 -200 1184 1031"
    underline-thickness="108"
    underline-position="-78"
    unicode-range="U+0020-U+F002"
  />
<missing-glyph 
d="M63 0v814h375v-814h-375zM125 63h250v689h-250v-689z" />
    <glyph glyph-name=".notdef" 
d="M63 0v814h375v-814h-375zM125 63h250v689h-250v-689z" />
    <glyph glyph-name="space" unicode=" " horiz-adv-x="222" 
 />
    <glyph glyph-name="exclam" unicode="!" horiz-adv-x="366" 
d="M306 712l-44 -475h-118l-44 475h206zM298 92c0 -26 -9.33301 -48.333 -28 -67s-41 -28 -67 -28s-48.333 9.33301 -67 28s-28 41 -28 67s9.33301 48.333 28 67s41 28 67 28s48.333 -9.33301 67 -28s28 -41 28 -67z" />
    <glyph glyph-name="quotedbl" unicode="&#x22;" horiz-adv-x="488" 
d="M431 478h-147v234h147v-234zM204 478h-147v234h147v-234z" />
    <glyph glyph-name="numbersign" unicode="#" horiz-adv-x="713" 
d="M666 412h-83l-13 -88h58v-155h-83l-27 -169h-174l27 169h-90l-27 -169h-174l27 169h-58v155h83l13 88h-58v155h83l24 153h174l-24 -153h90l24 153h174l-24 -153h58v-155zM409 412h-90l-13 -88h90z" />
    <glyph glyph-name="dollar" unicode="$" horiz-adv-x="633" 
d="M590 218c0 -60 -20.668 -109.667 -62.001 -149c-38 -36.667 -88.667 -60 -152 -70v-113h-126v108c-105.333 3.33301 -187 34.666 -245 93.999l112 112c32 -32 83 -48.667 153 -50v132l-39 5c-128 16.667 -192 85.334 -192 206.001c0 58.667 18.833 108.167 56.5 148.5
s89.167 64.833 154.5 73.5v91h126v-89c84.667 -5.33301 152.334 -33.333 203.001 -84l-110 -110c-24 24 -61.667 37.667 -113 41v-125l41 -6c66 -9.33301 114.667 -31 146 -65s47 -84 47 -150zM269.999 445v117.999c-41.333 -7.33301 -62 -28.666 -62 -63.999
c0 -14 5.83301 -26 17.5 -36s26.5 -16 44.5 -18zM417.999 213.999c0 18 -4.66699 32 -14 42s-25.333 16.333 -48 19v-122c41.333 8 62 28.333 62 61z" />
    <glyph glyph-name="percent" unicode="%" horiz-adv-x="857" 
d="M812 133c0 -44.667 -15.333 -79.667 -46 -105c-27.333 -22.667 -62.333 -34 -105 -34s-77.667 11.333 -105 34c-30.667 25.333 -46 60.333 -46 105v95c0 44.667 15.333 79.667 46 105c27.333 22.667 62.333 34 105 34s77.667 -11.333 105 -34
c30.667 -25.333 46 -60.333 46 -105v-95zM661 712l-339 -712h-126l339 712h126zM347 484c0 -44.667 -15.333 -79.667 -46 -105c-27.333 -22.667 -62.333 -34 -105 -34s-77.667 11.333 -105 34c-30.667 25.333 -46 60.333 -46 105v95c0 44.667 15.333 79.667 46 105
c27.333 22.667 62.333 34 105 34s77.667 -11.333 105 -34c30.667 -25.333 46 -60.333 46 -105v-95zM696 137v87c0 26 -11.667 39 -35 39s-35 -13 -35 -39v-87c0 -26 11.667 -39 35 -39s35 13 35 39zM231 488v87c0 26 -11.667 39 -35 39s-35 -13 -35 -39v-87
c0 -26 11.667 -39 35 -39s35 13 35 39z" />
    <glyph glyph-name="ampersand" unicode="&#x26;" horiz-adv-x="710" 
d="M710 0l-206 0.000976562l-45 52c-25.333 -19.333 -46 -32.333 -62 -39c-29.333 -12.667 -65 -19 -107 -19c-160.667 0 -241 74 -241 222c0 68.667 37.667 128 113 178c-44.667 50 -67 99 -67 147c0 54 18.167 97 54.5 129s87.833 48 154.5 48
c62 0 110.667 -16.5 146 -49.5s53 -76.167 53 -129.5c0 -46.667 -23.333 -87.334 -70 -122.001l-50 -37l84 -97c18 20.667 29 55 33 103h154c-7.33301 -96 -35 -170.333 -83 -223zM349 538.001c0 28 -15 41.999 -45 41.999s-45 -14.333 -45 -43
c0 -13.333 12.667 -32.666 38 -57.999c5.33301 4 13.333 9.66699 24 17c18.667 13.333 28 27.333 28 42zM360 168l-111 126.999c-28 -19.333 -42 -45.333 -42 -78c0 -21.333 8.16699 -39.166 24.5 -53.499s35.833 -21.5 58.5 -21.5c26.667 0 50 8.66699 70 26z" />
    <glyph glyph-name="quotesingle" unicode="'" horiz-adv-x="262" 
d="M205 478h-148v234h148v-234z" />
    <glyph glyph-name="parenleft" unicode="(" horiz-adv-x="358" 
d="M309 16l-110.002 -110.001c-28 28 -45.333 45.667 -52 53c-19.333 21.333 -34.666 41.333 -45.999 60c-19.333 32.667 -29 80.667 -29 144v386c0 63.333 9.66699 111.333 29 144c14.667 24.667 47.334 62.334 98.001 113.001l110 -110l-31 -31
c-9.33301 -10.667 -18 -22.667 -26 -36c-10.667 -17.333 -16 -46 -16 -86v-374c0 -40 5.16699 -68.5 15.5 -85.5s29.5 -39.5 57.5 -67.5z" />
    <glyph glyph-name="parenright" unicode=")" horiz-adv-x="358" 
d="M286 163c0 -63.333 -9.66504 -111.332 -28.998 -143.999c-14.667 -24.667 -47.334 -62.334 -98.001 -113.001l-110 110l31 31c9.33301 10.667 18 22.667 26 36c10.667 17.333 16 46 16 86v374c0 40 -5.16699 68.5 -15.5 85.5s-29.5 39.5 -57.5 67.5l110 110
c28 -28 45.333 -45.667 52 -53c19.333 -21.333 34.666 -41.333 45.999 -60c19.333 -32.667 29 -80.667 29 -144v-386z" />
    <glyph glyph-name="asterisk" unicode="*" horiz-adv-x="506" 
d="M459 453l-56 -97l-99 64l5 -118h-112l5 118l-99 -64l-56 97l105 54l-105 54l56 97l99 -64l-5 118h112l-5 -118l99 64l56 -97l-105 -54z" />
    <glyph glyph-name="plus" unicode="+" horiz-adv-x="556" 
d="M507 206h-152v-152h-154v152h-152v154h152v152h154v-152h152v-154z" />
    <glyph glyph-name="comma" unicode="," horiz-adv-x="288" 
d="M231 -50l-174 -128v352h174v-224z" />
    <glyph glyph-name="hyphen" unicode="-" horiz-adv-x="426" 
d="M377 218h-328v154h328v-154z" />
    <glyph glyph-name="hyphen" unicode="&#x2010;" horiz-adv-x="426" 
d="M377 218h-328v154h328v-154z" />
    <glyph glyph-name="period" unicode="." horiz-adv-x="308" 
d="M259 102c0 -28.667 -10.167 -53.334 -30.5 -74.001s-45.166 -31 -74.499 -31c-28.667 0 -53.334 10.333 -74.001 31s-31 45.334 -31 74.001c0 29.333 10.333 54.166 31 74.499s45.334 30.5 74.001 30.5c29.333 0 54.166 -10.167 74.499 -30.5s30.5 -45.166 30.5 -74.499z
" />
    <glyph glyph-name="slash" unicode="/" horiz-adv-x="431" 
d="M437 786l-285 -860h-152l285 860h152z" />
    <glyph glyph-name="zero" unicode="0" horiz-adv-x="556" 
d="M507 216c0 -70 -23.333 -125.333 -70 -166c-42.667 -37.333 -95.667 -56 -159 -56s-116.333 18.667 -159 56c-46.667 40.667 -70 96 -70 166v165c0 70 23.333 125.333 70 166c42.667 37.333 95.667 56 159 56s116.333 -18.667 159 -56c46.667 -40.667 70 -96 70 -166
v-165zM343 215v166c0 24 -6.16699 42.333 -18.5 55s-27.833 19 -46.5 19s-34.167 -6.33301 -46.5 -19s-18.5 -31 -18.5 -55v-166c0 -48.667 21.667 -73 65 -73s65 24.333 65 73z" />
    <glyph glyph-name="one" unicode="1" horiz-adv-x="476" 
d="M371 0h-164v422l-152 -132v175l152 132h164v-597z" />
    <glyph glyph-name="two" unicode="2" horiz-adv-x="573" 
d="M513 0l-468.001 0.000976562v148l221 173c48.667 38 73 69 73 93c0 40.667 -21.333 61 -64 61c-44 0 -66 -23 -66 -69h-164c0 67.333 23 121 69 161c42.667 37.333 96.334 56 161.001 56c66 0 120 -18 162 -54c44 -38 66 -88.333 66 -151
c0 -36.667 -13.667 -72.334 -41 -107.001c-20.667 -26.667 -56 -59 -106 -97l-86 -66h243v-148z" />
    <glyph glyph-name="three" unicode="3" horiz-adv-x="546" 
d="M504 98c0 -70.667 -24 -125.667 -72 -165c-42.667 -36 -97.667 -54 -165 -54c-66 0 -120.333 17 -163 51c-49.333 40 -74 97.333 -74 172h164c0 -24 6.83301 -42.5 20.5 -55.5s31.167 -19.5 52.5 -19.5c48.667 0 73 25.333 73 76c0 21.333 -7.16699 39.166 -21.5 53.499
s-32.5 21.5 -54.5 21.5h-23v142h23c22.667 0 40 7.33301 52 22c10.667 12 16 27 16 45c0 21.333 -6.33301 38 -19 50s-28 18 -46 18s-33.333 -6 -46 -18s-19 -28.333 -19 -49h-164c0 65.333 22.333 118 67 158c42.667 38 96.667 57 162 57c66 0 120.667 -19.833 164 -59.5
s65 -90.167 65 -151.5s-24.667 -107.666 -74 -138.999c54.667 -38 82 -89.667 82 -155z" />
    <glyph glyph-name="four" unicode="4" horiz-adv-x="619" 
d="M579 30h-73v-153h-156v153h-309v156l231 462h177l-231 -462h132v114h156v-114h73v-156z" />
    <glyph glyph-name="five" unicode="5" horiz-adv-x="571" 
d="M525 128c0 -44.667 -4.33301 -80 -13 -106c-9.33301 -28.667 -27 -56 -53 -82c-40.667 -40.667 -95.667 -61 -165 -61c-71.333 0 -127.666 20.667 -168.999 62c-36 36 -56.667 89.667 -62 161h164c5.33301 -50 27.666 -75 66.999 -75c18.667 0 34.5 6.5 47.5 19.5
s19.5 40.167 19.5 81.5c0 67.333 -22.333 101 -67 101c-32 0 -54.333 -17 -67 -51h-151v419h434v-148h-285v-110c24 18.667 56 28 96 28c58.667 0 104.667 -16.667 138 -50c44 -44 66 -107 66 -189z" />
    <glyph glyph-name="six" unicode="6" horiz-adv-x="562" 
d="M527 227c0 -74.667 -24.333 -133 -73 -175c-45.333 -38.667 -103 -58 -173 -58s-127.333 19.333 -172 58c-49.333 42 -74 100.333 -74 175c0 46 6.66699 89 20 129c10.667 32 30.334 74 59.001 126l134 246h177l-165 -289c15.333 8 38.666 12 69.999 12
c52.667 0 97.667 -18.333 135 -55c41.333 -42 62 -98.333 62 -169zM363 227c0 28.667 -7.83301 51 -23.5 67s-35.167 24 -58.5 24s-42.833 -8 -58.5 -24s-23.5 -38.333 -23.5 -67s7.83301 -51 23.5 -67s35.167 -24 58.5 -24s42.833 8 58.5 24s23.5 38.333 23.5 67z" />
    <glyph glyph-name="seven" unicode="7" horiz-adv-x="583" 
d="M548 449l-247 -564h-178l247 564h-169v-112h-156v260h503v-148z" />
    <glyph glyph-name="eight" unicode="8" horiz-adv-x="576" 
d="M527 213c0 -70.667 -23.335 -125.667 -70.002 -165c-43.333 -36 -99.666 -54 -168.999 -54s-125.666 18 -168.999 54c-46.667 39.333 -70 94.333 -70 165c0 58.667 26.667 109.667 80 153c-48.667 40.667 -73 87.667 -73 141c0 64.667 23.333 116.667 70 156
c44 36.667 98 55 162 55s118 -18.333 162 -55c46.667 -39.333 70 -91.333 70 -156c0 -53.333 -24.333 -100.333 -73 -141c53.333 -43.333 80 -94.333 80 -153zM355.998 502c0 19.333 -6.5 35.5 -19.5 48.5s-29.167 19.5 -48.5 19.5c-18.667 0 -34.667 -6.5 -48 -19.5
s-20 -29.167 -20 -48.5c0 -18.667 6.66699 -34.667 20 -48s29.333 -20 48 -20c19.333 0 35.5 6.66699 48.5 20s19.5 29.333 19.5 48zM362.998 217c0 20.667 -7.33301 38.334 -22 53.001s-32.334 22 -53.001 22s-38.334 -7.33301 -53.001 -22s-22 -32.334 -22 -53.001
s7.33301 -38.334 22 -53.001s32.334 -22 53.001 -22s38.334 7.33301 53.001 22s22 32.334 22 53.001z" />
    <glyph glyph-name="nine" unicode="9" horiz-adv-x="562" 
d="M527 370c0 -46 -6.66602 -89 -19.999 -129c-10.667 -32 -30.334 -74 -59.001 -126l-134 -246h-177l165 289c-15.333 -8 -38.666 -12 -69.999 -12c-52.667 0 -97.334 18.333 -134.001 55c-42 42 -63 98.333 -63 169c0 74.667 24.667 133 74 175
c44.667 38.667 102 58 172 58s127.667 -19.333 173 -58c48.667 -42 73 -100.333 73 -175zM363.001 370c0 28.667 -7.83301 51 -23.5 67s-35.167 24 -58.5 24s-42.833 -8 -58.5 -24s-23.5 -38.333 -23.5 -67s7.83301 -51 23.5 -67s35.167 -24 58.5 -24s42.833 8 58.5 24
s23.5 38.333 23.5 67z" />
    <glyph glyph-name="colon" unicode=":" horiz-adv-x="331" 
d="M282 352c0 -28.667 -10.167 -53.334 -30.5 -74.001s-45.166 -31 -74.499 -31c-28.667 0 -53.334 10.333 -74.001 31s-31 45.334 -31 74.001c0 29.333 10.333 54.166 31 74.499s45.334 30.5 74.001 30.5c29.333 0 54.166 -10.167 74.499 -30.5s30.5 -45.166 30.5 -74.499z
M282 102c0 -28.667 -10.167 -53.334 -30.5 -74.001s-45.166 -31 -74.499 -31c-28.667 0 -53.334 10.333 -74.001 31s-31 45.334 -31 74.001c0 29.333 10.333 54.166 31 74.499s45.334 30.5 74.001 30.5c29.333 0 54.166 -10.167 74.499 -30.5s30.5 -45.166 30.5 -74.499z
" />
    <glyph glyph-name="semicolon" unicode=";" horiz-adv-x="317" 
d="M282 352c0 -28.667 -10.167 -53.334 -30.5 -74.001s-45.166 -31 -74.499 -31c-28.667 0 -53.334 10.333 -74.001 31s-31 45.334 -31 74.001c0 29.333 10.333 54.166 31 74.499s45.334 30.5 74.001 30.5c29.333 0 54.166 -10.167 74.499 -30.5s30.5 -45.166 30.5 -74.499z
M264 -50l-174 -128v352h174v-224z" />
    <glyph glyph-name="less" unicode="&#x3c;" horiz-adv-x="1027" 
d="M890 206l-377 -377l-377 377v205l300 -304v654h154v-654l300 304v-205z" />
    <glyph glyph-name="equal" unicode="=" horiz-adv-x="556" 
d="M507 340h-458v154h458v-154zM507 96h-458v154h458v-154z" />
    <glyph glyph-name="greater" unicode="&#x3e;" horiz-adv-x="1027" 
d="M891 180l-300 304v-655h-154v655l-300 -304v205l377 377l377 -377v-205z" />
    <glyph glyph-name="question" unicode="?" horiz-adv-x="538" 
d="M508 508c0 -42.667 -16.999 -85.332 -50.999 -127.999l-69 -87c-12 -15.333 -18 -31 -18 -47v-9h-164v23c0 42 13.667 79 41 111l70 82c18 21.333 27 40 27 56c0 40.667 -20 61 -60 61s-60 -21 -60 -63h-164c0 65.333 22.333 117.666 67 156.999
c41.333 36 93.666 54 156.999 54c62.667 0 114.667 -17.667 156 -53c45.333 -38.667 68 -91 68 -157zM383.001 92.002c0 -26 -9.33301 -48.333 -28 -67s-41 -28 -67 -28s-48.333 9.33301 -67 28s-28 41 -28 67s9.33301 48.333 28 67s41 28 67 28s48.333 -9.33301 67 -28
s28 -41 28 -67z" />
    <glyph glyph-name="at" unicode="@" horiz-adv-x="784" 
d="M735 -4l-151 3.99902v40c-32 -30.667 -69.667 -46 -113 -46c-49.333 0 -89.333 14.667 -120 44c-21.333 20 -35 45.667 -41 77c-4.66699 22 -7 59 -7 111s2.33301 89 7 111c6 30.667 19.667 56.334 41 77.001c30 29.333 69.667 44 119 44c44 0 80.333 -13.667 109 -41v26
c0 42 -10.667 73.667 -32 95s-53 32 -95 32h-120c-42 0 -73.667 -10.667 -95 -32s-32 -53 -32 -95v-262c0 -33.333 12 -62 36 -86l-113 -113c-28.667 28.667 -48.667 55.667 -60 81c-12.667 28.667 -19 64.667 -19 108v278c0 94 21.333 162.333 64 205s112 64 208 64h142
c96 0 165.333 -21.333 208 -64s64 -111 64 -205v-453zM579 225.999c0 64 -20 96 -60 96s-60 -32 -60 -96s20 -96 60 -96s60 32 60 96z" />
    <glyph glyph-name="A" unicode="A" horiz-adv-x="653" 
d="M653 0h-183l-33 106h-219l-35 -106h-183l259 712h135zM391 252l-60 190l-64 -190h124z" />
    <glyph glyph-name="B" unicode="B" horiz-adv-x="653" 
d="M604 210c0 -66 -20.668 -117.499 -62.001 -154.499s-94.666 -55.5 -159.999 -55.5h-310v712h295c72.667 0 128.667 -18.667 168 -56s59 -87.333 59 -150c0 -58.667 -26 -105.667 -78 -141c58.667 -36.667 88 -88.334 88 -155.001zM418.999 497.001
c0 38.667 -21 58 -63 58h-109v-116h109c42 0 63 19.333 63 58zM428.999 220.001c0 41.333 -21.333 62 -64 62h-118v-125h118c42.667 0 64 21 64 63z" />
    <glyph glyph-name="C" unicode="C" horiz-adv-x="547" 
d="M516 73c-52.667 -52.667 -118.334 -79 -197.001 -79s-144.667 26.667 -198 80c-33.333 33.333 -54.666 76.333 -63.999 129c-5.33301 29.333 -8 80.333 -8 153s2.66699 123.667 8 153c9.33301 52.667 30.666 95.667 63.999 129c53.333 53.333 119.333 80 198 80
s144.334 -26.333 197.001 -79l-116 -116c-26 26 -53 39 -81 39c-30 0 -52.667 -10 -68 -30c-18 -23.333 -27 -82 -27 -176s9 -152.667 27 -176c15.333 -20 38 -30 68 -30c28 0 55 13 81 39z" />
    <glyph glyph-name="D" unicode="D" horiz-adv-x="651" 
d="M602 356c0 -80 -2 -131.333 -6 -154c-8.66699 -51.333 -31.334 -95.333 -68.001 -132c-46.667 -46.667 -110.667 -70 -192 -70h-264v712h264c81.333 0 145.333 -23.333 192 -70c36.667 -36.667 59.334 -80.667 68.001 -132c4 -22.667 6 -74 6 -154zM427 356
c0 88 -6.33301 141.334 -19 160.001c-18 26.667 -46 40 -84 40h-77v-400h77c38 0 66 13.333 84 40c7.33301 10.667 12.333 24.667 15 42c2.66699 21.333 4 60.666 4 117.999z" />
    <glyph glyph-name="E" unicode="E" horiz-adv-x="608" 
d="M556 0h-484v712h484v-156h-309v-119h264v-156h-264v-125h309v-156z" />
    <glyph glyph-name="F" unicode="F" horiz-adv-x="596" 
d="M556 556h-309v-125h264v-156h-264v-275h-175v712h484v-156z" />
    <glyph glyph-name="G" unicode="G" horiz-adv-x="633" 
d="M591 314c0 -59.333 -5.00195 -106.333 -15.002 -141c-10.667 -38 -29 -70.333 -55 -97c-53.333 -54.667 -120.666 -82 -201.999 -82c-78.667 0 -144.667 26.667 -198 80c-33.333 33.333 -54.666 76.333 -63.999 129c-5.33301 29.333 -8 80.333 -8 153
s2.66699 123.667 8 153c9.33301 52.667 30.666 95.667 63.999 129c53.333 53.333 119.333 80 198 80c50 0 91 -6.5 123 -19.5s64.333 -35.833 97 -68.5l-119 -119c-18.667 18.667 -34 31.334 -46 38.001c-15.333 8.66699 -33.666 13 -54.999 13c-30 0 -53 -10.333 -69 -31
c-17.333 -22.667 -26 -81 -26 -175c0 -94.667 8.66699 -153.334 26 -176.001c15.333 -20 38.333 -30 69 -30c30 0 53.833 9.16699 71.5 27.5s26.5 44.5 26.5 78.5v8h-98v146h272v-96z" />
    <glyph glyph-name="H" unicode="H" horiz-adv-x="680" 
d="M608 0h-175v282h-186v-282h-175v712h175v-274h186v274h175v-712z" />
    <glyph glyph-name="I" unicode="I" horiz-adv-x="319" 
d="M247 0h-175v712h175v-712z" />
    <glyph glyph-name="J" unicode="J" horiz-adv-x="516" 
d="M454 244c0 -79.333 -28 -142.001 -84 -188.001c-50 -41.333 -111.333 -62 -184 -62c-42 0 -77.667 5.83301 -107 17.5s-58.333 31.834 -87 60.501l115 114c24 -24 50.333 -36 79 -36c62 0 93 32.667 93 98v464h175v-468z" />
    <glyph glyph-name="K" unicode="K" horiz-adv-x="673" 
d="M673 0h-204l-164 292l-60 -69v-223h-173v712h173v-252l206 252h214l-243 -288z" />
    <glyph glyph-name="L" unicode="L" horiz-adv-x="576" 
d="M546 0h-474v712h175v-556h299v-156z" />
    <glyph glyph-name="M" unicode="M" horiz-adv-x="808" 
d="M736 0h-175v341l-101 -176h-112l-101 176v-341h-175v712h172l160 -314l160 314h172v-712z" />
    <glyph glyph-name="N" unicode="N" horiz-adv-x="700" 
d="M628 0h-153l-228 358v-358h-175v712h153l228 -358v358h175v-712z" />
    <glyph glyph-name="O" unicode="O" horiz-adv-x="640" 
d="M591 356c0 -72.667 -2.66699 -123.667 -8 -153c-9.33301 -52.667 -30.666 -95.667 -63.999 -129c-53.333 -53.333 -119.666 -80 -198.999 -80s-145.666 26.667 -198.999 80c-33.333 33.333 -54.666 76.333 -63.999 129c-5.33301 29.333 -8 80.333 -8 153
s2.66699 123.667 8 153c9.33301 52.667 30.666 95.667 63.999 129c53.333 53.333 119.666 80 198.999 80s145.666 -26.667 198.999 -80c33.333 -33.333 54.666 -76.333 63.999 -129c5.33301 -29.333 8 -80.333 8 -153zM416 356c0 94 -8.66895 152.333 -26.002 175
c-16 20.667 -39.333 31 -70 31s-54 -10.333 -70 -31c-17.333 -22.667 -26 -81 -26 -175c0 -93.333 8.33301 -151 25 -173s40.334 -33 71.001 -33s54.334 11 71.001 33s25 79.667 25 173z" />
    <glyph glyph-name="P" unicode="P" horiz-adv-x="627" 
d="M597 483c0 -62.667 -20.667 -115.332 -62 -157.999c-45.333 -47.333 -105.666 -71 -180.999 -71h-107v-254h-175v712h282c75.333 0 135.666 -23.667 180.999 -71c41.333 -42.667 62 -95.334 62 -158.001zM422 483.002c0 19.333 -7 36.168 -21 50.501
s-32.333 21.5 -55 21.5h-99v-144h99c22.667 0 41 7.16699 55 21.5s21 31.166 21 50.499z" />
    <glyph glyph-name="Q" unicode="Q" horiz-adv-x="640" 
d="M602 61l-88.999 -89l-55 55c-38 -22 -84 -33 -138 -33c-79.333 0 -145.666 26.667 -198.999 80c-33.333 33.333 -54.666 76.333 -63.999 129c-5.33301 29.333 -8 80.333 -8 153s2.66699 123.667 8 153c9.33301 52.667 30.666 95.667 63.999 129
c53.333 53.333 119.666 80 198.999 80s145.666 -26.667 198.999 -80c33.333 -33.333 54.666 -76.333 63.999 -129c5.33301 -29.333 8 -80.333 8 -153c0 -61.333 -1.33301 -104.333 -4 -129c-5.33301 -45.333 -17.666 -83.333 -36.999 -114zM416.001 356
c0 94 -8.66797 152.333 -26.001 175c-16 20.667 -39.333 31 -70 31s-54 -10.333 -70 -31c-17.333 -22.667 -26 -81 -26 -175c0 -93.333 8.33301 -151 25 -173s40.334 -33 71.001 -33c6 0 10.667 0.333008 14 1l-45 45l89 89l34 -34c2.66699 32 4 67 4 105z" />
    <glyph glyph-name="R" unicode="R" horiz-adv-x="652" 
d="M635 0l-202.999 0.000976562l-126 265h-59v-265h-175v712h282c75.333 0 135.666 -23.667 180.999 -71c41.333 -42.667 62 -95.334 62 -158.001c0 -85.333 -38.667 -147.333 -116 -186zM422.001 483.001c0 19.333 -7 36.168 -21 50.501s-32.333 21.5 -55 21.5h-99v-144h99
c22.667 0 41 7.16699 55 21.5s21 31.166 21 50.499z" />
    <glyph glyph-name="S" unicode="S" horiz-adv-x="593" 
d="M550 218c0 -70 -26.999 -125.333 -80.999 -166c-50.667 -38.667 -115.334 -58 -194.001 -58c-119.333 0 -209.333 31.333 -270 94l112 112c33.333 -33.333 86.333 -50 159 -50c68 0 102 21.333 102 64c0 34.667 -20.333 55 -61 61l-86 12c-128 18 -192 86.667 -192 206
c0 66 23.5 120 70.5 162s110.167 63 189.5 63c103.333 0 183.333 -28.333 240 -85l-110 -110c-28 28 -73 42 -135 42c-28 0 -50 -7 -66 -21c-13.333 -12.667 -20 -27.667 -20 -45c0 -12.667 5 -24 15 -34s26 -16.667 48 -20l86 -12c65.333 -9.33301 113.833 -31 145.5 -65
s47.5 -84 47.5 -150z" />
    <glyph glyph-name="T" unicode="T" horiz-adv-x="585" 
d="M555 556h-175v-556h-175v556h-175v156h525v-156z" />
    <glyph glyph-name="U" unicode="U" horiz-adv-x="660" 
d="M600 250c0 -76 -26.166 -137.667 -78.499 -185s-116.5 -71 -192.5 -71s-139.333 23.333 -190 70c-52.667 48 -79 110 -79 186v462h175v-458c0 -32.667 8.33301 -58.167 25 -76.5s39.667 -27.5 69 -27.5s52.666 9.16699 69.999 27.5s26 43.833 26 76.5v458h175v-462z" />
    <glyph glyph-name="V" unicode="V" horiz-adv-x="601" 
d="M601 712l-236 -712h-130l-235 712h181l120 -398l118 398h182z" />
    <glyph glyph-name="W" unicode="W" horiz-adv-x="906" 
d="M906 712l-195 -712h-143l-115 351l-115 -351h-142l-196 712h183l93 -376l115 376h124l115 -376l93 376h183z" />
    <glyph glyph-name="X" unicode="X" horiz-adv-x="634" 
d="M634 0h-200l-117 219l-117 -219h-200l222 365l-208 347h199l104 -201l104 201h199l-208 -347z" />
    <glyph glyph-name="Y" unicode="Y" horiz-adv-x="605" 
d="M605 712l-215 -422v-290h-175v290l-215 422h191l112 -256l111 256h191z" />
    <glyph glyph-name="Z" unicode="Z" horiz-adv-x="543" 
d="M513 0h-483v136l273 420h-261v156h471v-136l-274 -420h274v-156z" />
    <glyph glyph-name="bracketleft" unicode="[" horiz-adv-x="416" 
d="M376 -74h-304v860h304v-148h-140v-564h140v-148z" />
    <glyph glyph-name="backslash" unicode="\" horiz-adv-x="431" 
d="M431 -74h-152l-279 842h152z" />
    <glyph glyph-name="bracketright" unicode="]" horiz-adv-x="416" 
d="M344 -74h-304v148h140v564h-140v148h304v-860z" />
    <glyph glyph-name="asciicircum" unicode="^" horiz-adv-x="640" 
d="M583 375h-173l-90 165l-90 -165h-173l187 345h152z" />
    <glyph glyph-name="underscore" unicode="_" horiz-adv-x="640" 
d="M640 -186h-640v108h640v-108z" />
    <glyph glyph-name="grave" unicode="`" 
d="M308 610h-99l-118 180h168z" />
    <glyph glyph-name="a" unicode="a" horiz-adv-x="536" 
d="M483 0h-160v44c-32.667 -32.667 -72.667 -49 -120 -49c-54 0 -96.833 15.833 -128.5 47.5s-47.5 73.834 -47.5 126.501c0 44 14.667 80 44 108c32.667 32 79 48 139 48h109v14c0 44.667 -27 67 -81 67c-33.333 0 -62 -12 -86 -36l-102 102
c27.333 27.333 55.333 46.166 84 56.499s66 15.5 112 15.5c158 0 237 -65 237 -195v-349zM319 202v14h-83c-34.667 0 -52 -14.333 -52 -43c0 -30 18 -45 54 -45c29.333 0 51 6.66699 65 20c10.667 10 16 28 16 54z" />
    <glyph glyph-name="b" unicode="b" horiz-adv-x="569" 
d="M526 269c0 -58.667 -1.66699 -99.6689 -5 -123.002c-6.66699 -45.333 -21.667 -79.666 -45 -102.999c-32.667 -32.667 -76.334 -49 -131.001 -49c-49.333 0 -90.666 16.667 -123.999 50v-44h-159v712h164v-213c30 30 70 45 120 45c54 0 97.333 -16.333 130 -49
c23.333 -23.333 38.333 -57.666 45 -102.999c3.33301 -23.333 5 -64.333 5 -123zM362 268.998c0 44.667 -3.66699 75.667 -11 93c-10 22.667 -29 34 -57 34s-47 -11.333 -57 -34c-7.33301 -17.333 -11 -48.333 -11 -93s3.66699 -75.667 11 -93c10 -22.667 29 -34 57 -34
s47 11.333 57 34c7.33301 17.333 11 48.333 11 93z" />
    <glyph glyph-name="c" unicode="c" horiz-adv-x="475" 
d="M457 63c-46 -46 -105 -69 -177 -69c-63.333 0 -115.333 16.333 -156 49c-57.333 46.667 -86 122 -86 226s28.667 179.333 86 226c40.667 32.667 92.667 49 156 49c72 0 131 -23 177 -69l-111 -111c-21.333 21.333 -43.333 32 -66 32c-52 0 -78 -42.333 -78 -127
s26 -127 78 -127c22.667 0 44.667 10.667 66 32z" />
    <glyph glyph-name="d" unicode="d" horiz-adv-x="569" 
d="M507 0l-159 0.00195312v44c-33.333 -33.333 -74.666 -50 -123.999 -50c-54.667 0 -98.334 16.333 -131.001 49c-23.333 23.333 -38.333 57.666 -45 102.999c-3.33301 23.333 -5 64.333 -5 123s1.66699 99.667 5 123c6.66699 45.333 21.667 79.666 45 102.999
c32.667 32.667 76 49 130 49c50 0 90 -15 120 -45v213h164v-712zM343 269.002c0 44.667 -3.66699 75.667 -11 93c-10 22.667 -29 34 -57 34s-47 -11.333 -57 -34c-7.33301 -17.333 -11 -48.333 -11 -93s3.66699 -75.667 11 -93c10 -22.667 29 -34 57 -34s47 11.333 57 34
c7.33301 17.333 11 48.333 11 93z" />
    <glyph glyph-name="e" unicode="e" horiz-adv-x="559" 
d="M521 216l-322.001 -0.000976562c0 -23.333 8.33301 -42.666 25 -57.999c17.333 -17.333 40.666 -26 69.999 -26c44 0 81 15 111 45l98 -98c-29.333 -29.333 -58.666 -50.333 -87.999 -63c-33.333 -14.667 -73.666 -22 -120.999 -22c-170.667 0 -256 91.667 -256 275
c0 86 22.667 154 68 204c43.333 47.333 101 71 173 71c75.333 0 135.333 -25 180 -75c41.333 -46.667 62 -106.667 62 -180v-73zM358.999 324.999c0 25.333 -7.16602 45.667 -21.499 61s-33.833 23 -58.5 23c-34.667 0 -58.334 -14 -71.001 -42
c-6 -13.333 -9 -27.333 -9 -42h160z" />
    <glyph glyph-name="f" unicode="f" horiz-adv-x="358" 
d="M333 391h-90v-391h-164v391h-49v126h49v47c0 42 13 77.667 39 107c30 34.667 72.667 52 128 52h87v-138h-57c-22 0 -33 -11 -33 -33v-35h90v-126z" />
    <glyph glyph-name="g" unicode="g" horiz-adv-x="561" 
d="M499 39c0 -64 -22.333 -116.5 -67 -157.5s-103.334 -61.5 -176.001 -61.5c-88 0 -155.333 23.333 -202 70l102 102c22.667 -22.667 53.334 -34 92.001 -34c58 0 87 27.333 87 82v39c-30 -30 -68.667 -45 -116 -45c-52 0 -94 16 -126 48c-22.667 22.667 -37 51 -43 85
c-4.66699 23.333 -7 64 -7 122s2.33301 98.667 7 122c6 34 20.333 62.333 43 85c32 32 74.333 48 127 48c46.667 0 86.667 -16.667 120 -50v44h159v-499zM335 289c0 34.667 -3 59.334 -9 74.001c-10 22 -28.333 33 -55 33s-44.667 -11 -54 -33
c-6.66699 -14.667 -10 -39.334 -10 -74.001s3.33301 -59.334 10 -74.001c9.33301 -22 27.333 -33 54 -33s45 11 55 33c6 14.667 9 39.334 9 74.001z" />
    <glyph glyph-name="h" unicode="h" horiz-adv-x="573" 
d="M516 0h-163.999v326c0 25.333 -8 44.333 -24 57c-11.333 8.66699 -24.333 13 -39 13s-27.667 -4.33301 -39 -13c-16 -12.667 -24 -31.667 -24 -57v-326h-164v712h164v-218c33.333 33.333 72.666 50 117.999 50c56 0 99.333 -19 130 -57c28 -34.667 42 -80.667 42 -138
v-349z" />
    <glyph glyph-name="i" unicode="i" horiz-adv-x="288" 
d="M244 662c0 -27.333 -9.83301 -50.833 -29.5 -70.5s-43.167 -29.5 -70.5 -29.5s-50.833 9.83301 -70.5 29.5s-29.5 43.167 -29.5 70.5s9.83301 50.833 29.5 70.5s43.167 29.5 70.5 29.5s50.833 -9.83301 70.5 -29.5s29.5 -43.167 29.5 -70.5zM226 0h-164v517h164v-517z
" />
    <glyph glyph-name="j" unicode="j" horiz-adv-x="288" 
d="M244 662c0 -27.333 -9.83301 -50.833 -29.5 -70.5s-43.167 -29.5 -70.5 -29.5s-50.833 9.83301 -70.5 29.5s-29.5 43.167 -29.5 70.5s9.83301 50.833 29.5 70.5s43.167 29.5 70.5 29.5s50.833 -9.83301 70.5 -29.5s29.5 -43.167 29.5 -70.5zM226 -21
c0 -42 -13 -77.667 -39 -107c-30 -34.667 -72.667 -52 -128 -52h-87v138h57c22 0 33 11 33 33v526h164v-538z" />
    <glyph glyph-name="k" unicode="k" horiz-adv-x="573" 
d="M573 0h-203l-112 197l-32 -35v-162h-164v712h164v-362l145 188h197l-198 -223z" />
    <glyph glyph-name="l" unicode="l" horiz-adv-x="341" 
d="M311 0h-87c-55.333 -0 -98 17.333 -128 52c-26 29.333 -39 65 -39 107v553h164v-541c0 -22 11 -33 33 -33h57v-138z" />
    <glyph glyph-name="m" unicode="m" horiz-adv-x="875" 
d="M818 0l-164 -0.000976562v322c0 27.333 -8.33301 47.333 -25 60c-11.333 9.33301 -25 14 -41 14s-29.667 -4.66699 -41 -14c-16.667 -12.667 -25 -32.667 -25 -60v-322h-164v322c0 27.333 -8.33301 47.333 -25 60c-11.333 9.33301 -25 14 -41 14
s-29.667 -4.66699 -41 -14c-16.667 -12.667 -25 -32.667 -25 -60v-322h-164v538h160v-44c33.333 33.333 75 50 125 50c54 0 97.667 -19 131 -57c43.333 38 94 57 152 57c55.333 0 98.333 -15.333 129 -46c39.333 -39.333 59 -90.666 59 -153.999v-344z" />
    <glyph glyph-name="n" unicode="n" horiz-adv-x="579" 
d="M522 0h-164v322c0 27.333 -8.33301 47.333 -25 60c-11.333 9.33301 -25 14 -41 14s-29.667 -4.66699 -41 -14c-16.667 -12.667 -25 -32.667 -25 -60v-322h-164v538h160v-44c33.333 33.333 75 50 125 50s90.333 -15.333 121 -46c36 -36 54 -87.333 54 -154v-344z" />
    <glyph glyph-name="o" unicode="o" horiz-adv-x="550" 
d="M507 269c0 -53.333 -4.16699 -95 -12.5 -125s-23.833 -57 -46.5 -81c-42.667 -46 -100.334 -69 -173.001 -69s-130.334 23 -173.001 69c-22.667 24 -38.167 51 -46.5 81s-12.5 71.667 -12.5 125s4.16699 95 12.5 125s23.833 57 46.5 81c42.667 46 100.334 69 173.001 69
s130.334 -23 173.001 -69c22.667 -24 38.167 -51 46.5 -81s12.5 -71.667 12.5 -125zM343 269c0 40 -2.33301 67.667 -7 83c-10 29.333 -30.333 44 -61 44s-51 -14.667 -61 -44c-4.66699 -15.333 -7 -43 -7 -83s2.33301 -67.667 7 -83c10 -29.333 30.333 -44 61 -44
s51 14.667 61 44c4.66699 15.333 7 43 7 83z" />
    <glyph glyph-name="p" unicode="p" horiz-adv-x="569" 
d="M526 269c0 -58.667 -1.66699 -99.6689 -5 -123.002c-6.66699 -45.333 -21.667 -79.666 -45 -102.999c-32.667 -32.667 -76 -49 -130 -49c-50 0 -90 15 -120 45v-213h-164v712h159v-44c33.333 33.333 74.666 50 123.999 50c54.667 0 98.334 -16.333 131.001 -49
c23.333 -23.333 38.333 -57.666 45 -102.999c3.33301 -23.333 5 -64.333 5 -123zM362 268.998c0 44.667 -3.66699 75.667 -11 93c-10 22.667 -29 34 -57 34s-47 -11.333 -57 -34c-7.33301 -17.333 -11 -48.333 -11 -93s3.66699 -75.667 11 -93c10 -22.667 29 -34 57 -34
s47 11.333 57 34c7.33301 17.333 11 48.333 11 93z" />
    <glyph glyph-name="q" unicode="q" horiz-adv-x="569" 
d="M507 -174l-164 0.00195312v213c-30 -30 -70 -45 -120 -45c-54 0 -97.333 16.333 -130 49c-23.333 23.333 -38.333 57.666 -45 102.999c-3.33301 23.333 -5 64.333 -5 123s1.66699 99.667 5 123c6.66699 45.333 21.667 79.666 45 102.999
c32.667 32.667 76.334 49 131.001 49c49.333 0 90.666 -16.667 123.999 -50v44h159v-712zM343 269.002c0 44.667 -3.66699 75.667 -11 93c-10 22.667 -29 34 -57 34s-47 -11.333 -57 -34c-7.33301 -17.333 -11 -48.333 -11 -93s3.66699 -75.667 11 -93
c10 -22.667 29 -34 57 -34s47 11.333 57 34c7.33301 17.333 11 48.333 11 93z" />
    <glyph glyph-name="r" unicode="r" horiz-adv-x="475" 
d="M475 494l-123.998 -126c-18.667 18.667 -38.334 28 -59.001 28c-15.333 0 -29 -4.66699 -41 -14c-16.667 -13.333 -25 -33.333 -25 -60v-322h-164v538h160v-44c33.333 33.333 75.666 50 126.999 50c50.667 0 92.667 -16.667 126 -50z" />
    <glyph glyph-name="s" unicode="s" horiz-adv-x="504" 
d="M477 176c0 -60 -23.334 -106.332 -70.001 -138.999c-41.333 -28.667 -95.666 -43 -162.999 -43c-51.333 0 -91.333 3.66699 -120 11c-42.667 11.333 -80.667 33.666 -114 66.999l106 106c30 -30 73.667 -45 131 -45c46.667 0 70 11.667 70 35c0 20 -13 31.333 -39 34
l-83 8c-104 10 -156 62 -156 156c0 56 22.333 100.667 67 134c40 29.333 89 44 147 44c97.333 0 168 -22 212 -66l-101 -101c-21.333 21.333 -59.333 32 -114 32c-35.333 0 -53 -10.333 -53 -31c0 -18 11.667 -28 35 -30l83 -8c54 -5.33301 95 -23.333 123 -54
c26 -28 39 -64.667 39 -110z" />
    <glyph glyph-name="t" unicode="t" horiz-adv-x="363" 
d="M323 0h-82c-55.333 -0 -98 17.333 -128 52c-26 29.333 -39 65 -39 107v232h-49v126h49v154h164v-154h85v-126h-85v-220c0 -22 11 -33 33 -33h52v-138z" />
    <glyph glyph-name="u" unicode="u" horiz-adv-x="579" 
d="M517 0h-160v44c-33.333 -33.333 -75 -50 -125 -50s-90.333 15.333 -121 46c-36 36 -54 87.333 -54 154v344h164v-322c0 -27.333 8.33301 -47.333 25 -60c11.333 -9.33301 25 -14 41 -14s29.667 4.66699 41 14c16.667 12.667 25 32.667 25 60v322h164v-538z" />
    <glyph glyph-name="v" unicode="v" horiz-adv-x="521" 
d="M521 538l-198 -538h-125l-198 538h172l89 -279l88 279h172z" />
    <glyph glyph-name="w" unicode="w" horiz-adv-x="780" 
d="M780 538l-162 -538h-131l-97 295l-97 -295h-131l-162 538h173l67 -279l93 279h114l93 -279l67 279h173z" />
    <glyph glyph-name="x" unicode="x" horiz-adv-x="556" 
d="M556 0h-197l-82 136l-80 -136h-197l187 275l-180 263h197l73 -130l75 130h197l-180 -263z" />
    <glyph glyph-name="y" unicode="y" horiz-adv-x="514" 
d="M522 538l-223 -602c-28.667 -77.333 -83 -116 -163 -116h-62v148h35c28 0 46.333 13.333 55 40l15 45l-179 485h172l91 -279l87 279h172z" />
    <glyph glyph-name="z" unicode="z" horiz-adv-x="489" 
d="M449 0h-419v121l205 269h-193v148h407v-121l-209 -269h209v-148z" />
    <glyph glyph-name="braceleft" unicode="{" horiz-adv-x="518" 
d="M478 -74l-140.001 -0.000976562c-51.333 0 -91 14 -119 42c-32 32 -48 71 -48 117v119c0 52 -24.333 78 -73 78h-58v148h58c25.333 0 43.833 5.83301 55.5 17.5s17.5 31.834 17.5 60.501v119c0 46 16 85 48 117c28 28 67.667 42 119 42h140v-148h-70
c-28.667 0 -48 -5 -58 -15s-15 -31 -15 -63v-104c0 -54 -24.333 -87.333 -73 -100c48.667 -12.667 73 -46 73 -100v-104c0 -44 12.667 -69 38 -75c8.66699 -2 20.334 -3 35.001 -3h70v-148z" />
    <glyph glyph-name="bar" unicode="|" horiz-adv-x="364" 
d="M264 -74h-164v860h164v-860z" />
    <glyph glyph-name="braceright" unicode="}" horiz-adv-x="518" 
d="M478 282l-57.999 0.000976562c-25.333 0 -43.833 -5.83301 -55.5 -17.5s-17.5 -31.834 -17.5 -60.501v-119c0 -46 -16 -85 -48 -117c-28 -28 -67.667 -42 -119 -42h-140v148h70c28.667 0 48 5 58 15s15 31 15 63v104c0 54 24.333 87.333 73 100
c-48.667 12.667 -73 46 -73 100v104c0 44 -12.667 69 -38 75c-8.66699 2 -20.334 3 -35.001 3h-70v148h140c51.333 0 91 -14 119 -42c32 -32 48 -71 48 -117v-119c0 -52 24.333 -78 73 -78h58v-148z" />
    <glyph glyph-name="asciitilde" unicode="~" horiz-adv-x="646" 
d="M616 283c-64 -64 -126.333 -96 -187 -96c-43.333 0 -84.333 11.333 -123 34c-28.667 16.667 -56.667 25 -84 25c-31.333 0 -60.666 -13.667 -87.999 -41l-104 104c34 34 64 58 90 72c29.333 16 61 24 95 24c43.333 0 84.333 -11.333 123 -34
c28.667 -16.667 56.667 -25 84 -25c31.333 0 60.666 13.667 87.999 41z" />
    <glyph glyph-name="nonbreakingspace" unicode="&#xa0;" horiz-adv-x="222" 
 />
    <glyph glyph-name="exclamdown" unicode="&#xa1;" horiz-adv-x="366" 
d="M298 446c0 -26 -9.33301 -48.333 -28 -67s-41 -28 -67 -28s-48.333 9.33301 -67 28s-28 41 -28 67s9.33301 48.333 28 67s41 28 67 28s48.333 -9.33301 67 -28s28 -41 28 -67zM306 -174h-206l44 475h118z" />
    <glyph glyph-name="cent" unicode="&#xa2;" horiz-adv-x="499" 
d="M481 174c-39.333 -39.333 -83 -64.6699 -131 -76.0029v-98h-126v98c-54.667 12.667 -98.334 40.334 -131.001 83.001c-36.667 47.333 -55 109 -55 185s18.333 137.667 55 185c32.667 42.667 76.334 70.334 131.001 83.001v78h126v-78
c48 -11.333 91.667 -36.666 131 -75.999l-107 -107c-16.667 16.667 -31.334 27.667 -44.001 33v-236c12.667 5.33301 27.334 16.333 44.001 33zM244 249.996v232.002c-28 -20.667 -42 -59.334 -42 -116.001c0 -60.667 14 -99.334 42 -116.001z" />
    <glyph glyph-name="sterling" unicode="&#xa3;" horiz-adv-x="597" 
d="M557 0l-462 0.000976562v278h-60v126h60v64c0 79.333 28 142 84 188c50 41.333 111.333 62 184 62c42 0 77.667 -5.83301 107 -17.5s58.333 -31.834 87 -60.501l-115 -114c-24 24 -50.333 36 -79 36c-62 0 -93 -32.667 -93 -98v-60h93v-126h-93v-122h287v-156z" />
    <glyph glyph-name="currency" unicode="&#xa4;" horiz-adv-x="674" 
d="M627 114l-109 -109l-73 73c-36 -17.333 -72 -26 -108 -26s-72 8.66699 -108 26l-73 -73l-109 109l73 73c-17.333 36 -26 72 -26 108s8.66699 72 26 108l-73 73l109 109l73 -73c36 17.333 72 26 108 26s72 -8.66699 108 -26l73 73l109 -109l-73 -73
c17.333 -36 26 -72 26 -108s-8.66699 -72 -26 -108zM432 295c0 26 -9.33301 48.333 -28 67s-41 28 -67 28s-48.333 -9.33301 -67 -28s-28 -41 -28 -67s9.33301 -48.333 28 -67s41 -28 67 -28s48.333 9.33301 67 28s28 41 28 67z" />
    <glyph glyph-name="yen" unicode="&#xa5;" horiz-adv-x="605" 
d="M605 712l-125 -246h60v-126h-125l-25 -50v-50h150v-126h-150v-114h-175v114h-150v126h150v50l-25 50h-125v126h60l-125 246h191l112 -256l111 256h191z" />
    <glyph glyph-name="brokenbar" unicode="&#xa6;" horiz-adv-x="364" 
d="M264 436h-164v350h164v-350zM264 -74h-164v350h164v-350z" />
    <glyph glyph-name="section" unicode="&#xa7;" horiz-adv-x="516" 
d="M475 285c0 -56.667 -27 -103.333 -81 -140c47.333 -28.667 71 -73.667 71 -135c0 -62.667 -22.333 -111.334 -67 -146.001c-38 -29.333 -84.333 -44 -139 -44c-56 0 -102.333 13.667 -139 41c-44.667 32.667 -67 81.334 -67 146.001h156c0 -12 4.5 -22.333 13.5 -31
s21.167 -13 36.5 -13c33.333 0 50 13.667 50 41c0 24 -19.667 43.333 -59 58l-54 20c-54 20 -91.667 42.333 -113 67c-25.333 28.667 -38 70 -38 124c0 31.333 10 61 30 89c15.333 21.333 33 38.333 53 51c-44 26.667 -66 68.667 -66 126c0 48.667 15 89 45 121
c36 38.667 87.333 58 154 58c68 0 119.333 -18.333 154 -55c30 -31.333 45 -73.333 45 -126h-152c0 28 -15.667 42 -47 42s-47 -11.667 -47 -35c0 -18 18.667 -34 56 -48l54 -20c54 -20 91.667 -42.333 113 -67c25.333 -28.667 38 -70 38 -124zM319 279.001
c0 24 -6.66699 41.667 -20 53c-10 8.66699 -23 13 -39 13s-29 -4.33301 -39 -13c-13.333 -11.333 -20 -29 -20 -53s6.66699 -41.667 20 -53c10 -8.66699 23 -13 39 -13s29 4.33301 39 13c13.333 11.333 20 29 20 53z" />
    <glyph glyph-name="dieresis" unicode="&#xa8;" 
d="M447 680c0 -22 -7.83301 -40.833 -23.5 -56.5s-34.5 -23.5 -56.5 -23.5s-40.833 7.83301 -56.5 23.5s-23.5 34.5 -23.5 56.5s7.83301 40.833 23.5 56.5s34.5 23.5 56.5 23.5s40.833 -7.83301 56.5 -23.5s23.5 -34.5 23.5 -56.5zM213 680
c0 -22 -7.83301 -40.833 -23.5 -56.5s-34.5 -23.5 -56.5 -23.5s-40.833 7.83301 -56.5 23.5s-23.5 34.5 -23.5 56.5s7.83301 40.833 23.5 56.5s34.5 23.5 56.5 23.5s40.833 -7.83301 56.5 -23.5s23.5 -34.5 23.5 -56.5z" />
    <glyph glyph-name="copyright" unicode="&#xa9;" horiz-adv-x="822" 
d="M773 356c0 -100 -35.333 -185.333 -106 -256s-156 -106 -256 -106s-185.333 35.333 -256 106s-106 156 -106 256s35.333 185.333 106 256s156 106 256 106s185.333 -35.333 256 -106s106 -156 106 -256zM670 356c0 77.333 -24.5 140.833 -73.5 190.5
s-110.833 74.5 -185.5 74.5s-136.5 -24.833 -185.5 -74.5s-73.5 -113.167 -73.5 -190.5s24.5 -140.833 73.5 -190.5s110.833 -74.5 185.5 -74.5s136.5 24.833 185.5 74.5s73.5 113.167 73.5 190.5zM552 216c-40 -34.667 -84 -52 -132 -52c-50 0 -91.333 15 -124 45
c-38 34.667 -57 83.667 -57 147s19 112.333 57 147c32.667 30 74 45 124 45c48 0 92 -17.333 132 -52l-67 -67c-22 18 -43.667 27 -65 27c-52 0 -78 -33.333 -78 -100s26 -100 78 -100c21.333 0 43 9 65 27z" />
    <glyph glyph-name="ordfeminine" unicode="&#xaa;" horiz-adv-x="457" 
d="M407 283h-128v35c-26 -26 -58 -39 -96 -39c-42 0 -75.833 12.833 -101.5 38.5s-38.5 59.167 -38.5 100.5c0 35.333 11.667 64.333 35 87c26 25.333 63 38 111 38h87v11c0 36 -21.667 54 -65 54c-26 0 -48.667 -9.66699 -68 -29l-82 82c22 22 44.333 37 67 45
s52.667 12 90 12c126 0 189 -52 189 -156v-279zM276 444v12.001h-66c-26.667 0 -40 -11.333 -40 -34c0 -23.333 13.667 -35 41 -35c24.667 0 41.667 4.66699 51 14s14 23.666 14 42.999z" />
    <glyph glyph-name="guillemotleft" unicode="&#xab;" horiz-adv-x="672" 
d="M612 9l-273 271l273 270v-193l-81 -77l81 -78v-193zM303 9l-273 271l273 270v-193l-79 -77l79 -78v-193z" />
    <glyph glyph-name="logicalnot" unicode="&#xac;" horiz-adv-x="556" 
d="M513 88h-154v150h-316v154h470v-304z" />
    <glyph glyph-name="minus" unicode="&#xad;" horiz-adv-x="556" 
d="M507 218h-458v154h458v-154z" />
    <glyph glyph-name="minus" unicode="&#x2212;" horiz-adv-x="556" 
d="M507 218h-458v154h458v-154z" />
    <glyph glyph-name="registered" unicode="&#xae;" horiz-adv-x="822" 
d="M773 356c0 -100 -35.333 -185.333 -106 -256s-156 -106 -256 -106s-185.333 35.333 -256 106s-106 156 -106 256s35.333 185.333 106 256s156 106 256 106s185.333 -35.333 256 -106s106 -156 106 -256zM670 356c0 77.333 -24.5 140.833 -73.5 190.5
s-110.833 74.5 -185.5 74.5s-136.5 -24.833 -185.5 -74.5s-73.5 -113.167 -73.5 -190.5s24.5 -140.833 73.5 -190.5s110.833 -74.5 185.5 -74.5s136.5 24.833 185.5 74.5s73.5 113.167 73.5 190.5zM580 167l-117 0.000976562l-57 141h-31v-141h-103v378h169
c40 0 72 -12.667 96 -38c22 -22.667 33 -50.667 33 -84c0 -44.667 -20.333 -77.334 -61 -98.001zM467 423.001c0 25.333 -13.333 38 -40 38h-52v-76h52c26.667 0 40 12.667 40 38z" />
    <glyph glyph-name="macron" unicode="&#xaf;" 
d="M413 639h-326v105h326v-105z" />
    <glyph glyph-name="macron" unicode="&#x2c9;" 
d="M413 639h-326v105h326v-105z" />
    <glyph glyph-name="degree" unicode="&#xb0;" horiz-adv-x="486" 
d="M439 534c0 -54 -19.167 -100.167 -57.5 -138.5s-84.5 -57.5 -138.5 -57.5s-100.167 19.167 -138.5 57.5s-57.5 84.5 -57.5 138.5s19.167 100.167 57.5 138.5s84.5 57.5 138.5 57.5s100.167 -19.167 138.5 -57.5s57.5 -84.5 57.5 -138.5zM308 534
c0 18 -6.33301 33.333 -19 46s-28 19 -46 19s-33.333 -6.33301 -46 -19s-19 -28 -19 -46s6.33301 -33.333 19 -46s28 -19 46 -19s33.333 6.33301 46 19s19 28 19 46z" />
    <glyph glyph-name="plusminus" unicode="&#xb1;" horiz-adv-x="556" 
d="M507 371h-152v-152h-154v152h-152v154h152v152h154v-152h152v-154zM507 0h-458v154h458v-154z" />
    <glyph glyph-name="twosuperior" unicode="&#xb2;" horiz-adv-x="367" 
d="M327 285h-287v104l151 154c14.667 14.667 22 28 22 40c0 19.333 -9.66699 29 -29 29c-18.667 0 -28 -10 -28 -30h-116c0 42.667 14.667 76 44 100c26 22.667 59.333 34 100 34c42 0 76.333 -11.833 103 -35.5s40 -56.167 40 -97.5c0 -36.667 -19.667 -73.667 -59 -111
l-87 -83h146v-104z" />
    <glyph glyph-name="threesuperior" unicode="&#xb3;" horiz-adv-x="375" 
d="M335 416c0 -44 -15.001 -78 -45.001 -102c-26.667 -22 -61 -33 -103 -33c-40.667 0 -74.334 10.667 -101.001 32c-31.333 24.667 -46.666 60.667 -45.999 108h115c-1.33301 -24 9.33398 -36 32.001 -36c21.333 0 32 11.667 32 35c0 9.33301 -3.33301 17.333 -10 24
s-14.334 10 -23.001 10h-16v99h16c20 0 30 9.66699 30 29c0 20 -9.33301 30 -28 30c-19.333 0 -28.666 -10.333 -27.999 -31h-116c-0.666992 40.667 13 73.334 41 98.001s62.333 37 103 37c41.333 0 75.5 -12.333 102.5 -37s40.5 -55.667 40.5 -93
c0 -32.667 -13.333 -59.334 -40 -80.001c29.333 -27.333 44 -57.333 44 -90z" />
    <glyph glyph-name="acute" unicode="&#xb4;" 
d="M409 790l-118 -180h-99l49 180h168z" />
    <glyph glyph-name="mu" unicode="&#xb5;" horiz-adv-x="584" 
d="M522 0h-160v44c-33.333 -33.333 -75 -50 -125 -50h-11v-168h-164v712h164v-322c0 -27.333 8.33301 -47.333 25 -60c11.333 -9.33301 25 -14 41 -14s29.667 4.66699 41 14c16.667 12.667 25 32.667 25 60v322h164v-538z" />
    <glyph glyph-name="mu" unicode="&#x3bc;" horiz-adv-x="584" 
d="M522 0h-160v44c-33.333 -33.333 -75 -50 -125 -50h-11v-168h-164v712h164v-322c0 -27.333 8.33301 -47.333 25 -60c11.333 -9.33301 25 -14 41 -14s29.667 4.66699 41 14c16.667 12.667 25 32.667 25 60v322h164v-538z" />
    <glyph glyph-name="paragraph" unicode="&#xb6;" horiz-adv-x="707" 
d="M635 -174h-164v730h-90v-730h-164v472c-46.667 0 -89 19.333 -127 58c-40 41.333 -60 90.333 -60 147c0 69.333 23 122.333 69 159c42 33.333 99.333 50 172 50h364v-886z" />
    <glyph glyph-name="periodcentered" unicode="&#xb7;" horiz-adv-x="308" 
d="M259 295c0 -28.667 -10.167 -53.334 -30.5 -74.001s-45.166 -31 -74.499 -31c-28.667 0 -53.334 10.333 -74.001 31s-31 45.334 -31 74.001c0 29.333 10.333 54.166 31 74.499s45.334 30.5 74.001 30.5c29.333 0 54.166 -10.167 74.499 -30.5s30.5 -45.166 30.5 -74.499z
" />
    <glyph glyph-name="periodcentered" unicode="&#x2219;" horiz-adv-x="308" 
d="M259 295c0 -28.667 -10.167 -53.334 -30.5 -74.001s-45.166 -31 -74.499 -31c-28.667 0 -53.334 10.333 -74.001 31s-31 45.334 -31 74.001c0 29.333 10.333 54.166 31 74.499s45.334 30.5 74.001 30.5c29.333 0 54.166 -10.167 74.499 -30.5s30.5 -45.166 30.5 -74.499z
" />
    <glyph glyph-name="cedilla" unicode="&#xb8;" 
d="M333 -56l-36 -144h-146l67 144h115z" />
    <glyph glyph-name="onesuperior" unicode="&#xb9;" horiz-adv-x="311" 
d="M246 285h-116v297l-95 -82v130l95 82h116v-427z" />
    <glyph glyph-name="ordmasculine" unicode="&#xba;" horiz-adv-x="466" 
d="M419 498c0 -75.333 -16 -130.333 -48 -165c-34 -36.667 -80 -55 -138 -55s-104 18.333 -138 55c-32 34.667 -48 89.667 -48 165s16.5 130.833 49.5 166.5s78.5 53.5 136.5 53.5s104 -18.333 138 -55c32 -34.667 48 -89.667 48 -165zM287 498c0 32.667 -2 55 -6 67
c-7.33301 23.333 -23.333 35 -48 35s-40.667 -11.667 -48 -35c-4 -12 -6 -34.333 -6 -67s2 -55 6 -67c7.33301 -23.333 23.333 -35 48 -35s40.667 11.667 48 35c4 12 6 34.333 6 67z" />
    <glyph glyph-name="guillemotright" unicode="&#xbb;" horiz-adv-x="672" 
d="M642 280l-273 -271v193l79 78l-79 77v193zM333 280l-273 -271v193l80 78l-80 77v193z" />
    <glyph glyph-name="onequarter" unicode="&#xbc;" horiz-adv-x="871" 
d="M831 53h-26v-53h-109v53h-179v110l138 264h127l-139 -264h53v37h109v-37h26v-110zM659 712l-339 -712h-126l339 712h126zM246 285h-116v297l-95 -82v130l95 82h116v-427z" />
    <glyph glyph-name="onehalf" unicode="&#xbd;" horiz-adv-x="904" 
d="M864 0h-287v104l151 154c14.667 14.667 22 28 22 40c0 19.333 -9.66699 29 -29 29c-18.667 0 -28 -10 -28 -30h-116c0 42.667 14.667 76 44 100c26 22.667 59.333 34 100 34c42 0 76.333 -11.833 103 -35.5s40 -56.167 40 -97.5c0 -36.667 -19.667 -73.667 -59 -111
l-87 -83h146v-104zM659 712l-339 -712h-126l339 712h126zM246 285h-116v297l-95 -82v130l95 82h116v-427z" />
    <glyph glyph-name="threequarters" unicode="&#xbe;" horiz-adv-x="891" 
d="M851 53h-26v-53h-109v53h-179v110l138 264h127l-139 -264h53v37h109v-37h26v-110zM679 712l-339 -712h-126l339 712h126zM335 416c0 -44 -15.001 -78 -45.001 -102c-26.667 -22 -61 -33 -103 -33c-40.667 0 -74.334 10.667 -101.001 32
c-31.333 24.667 -46.666 60.667 -45.999 108h115c-1.33301 -24 9.33398 -36 32.001 -36c21.333 0 32 11.667 32 35c0 9.33301 -3.33301 17.333 -10 24s-14.334 10 -23.001 10h-16v99h16c20 0 30 9.66699 30 29c0 20 -9.33301 30 -28 30
c-19.333 0 -28.666 -10.333 -27.999 -31h-116c-0.666992 40.667 13 73.334 41 98.001s62.333 37 103 37c41.333 0 75.5 -12.333 102.5 -37s40.5 -55.667 40.5 -93c0 -32.667 -13.333 -59.334 -40 -80.001c29.333 -27.333 44 -57.333 44 -90z" />
    <glyph glyph-name="questiondown" unicode="&#xbf;" horiz-adv-x="538" 
d="M375 446c0 -26 -9.33301 -48.333 -28 -67s-41 -28 -67 -28s-48.333 9.33301 -67 28s-28 41 -28 67s9.33301 48.333 28 67s41 28 67 28s48.333 -9.33301 67 -28s28 -41 28 -67zM508 31c0 -65.333 -22.334 -117.668 -67.001 -157.001c-41.333 -36 -93.666 -54 -156.999 -54
c-62.667 0 -114.667 17.667 -156 53c-45.333 38.667 -68 91 -68 157c0 42.667 17 85.334 51 128.001l69 87c12 15.333 18 31 18 47v9h164v-23c0 -42 -13.667 -79 -41 -111l-70 -82c-18 -21.333 -27 -40 -27 -56c0 -40.667 20 -61 60 -61s60 21 60 63h164z" />
    <glyph glyph-name="Agrave" unicode="&#xc0;" horiz-adv-x="653" 
d="M653 0h-183l-33 106h-219l-35 -106h-183l259 712h135zM391 252l-60 190l-64 -190h124zM384 782h-99l-118 180h168z" />
    <glyph glyph-name="Aacute" unicode="&#xc1;" horiz-adv-x="653" 
d="M653 0h-183l-33 106h-219l-35 -106h-183l259 712h135zM391 252l-60 190l-64 -190h124zM485 962l-118 -180h-99l49 180h168z" />
    <glyph glyph-name="Acircumflex" unicode="&#xc2;" horiz-adv-x="653" 
d="M653 0h-183l-33 106h-219l-35 -106h-183l259 712h135zM391 252l-60 190l-64 -190h124zM525 782h-120l-79 83l-79 -83h-120l136 179h126z" />
    <glyph glyph-name="Atilde" unicode="&#xc3;" horiz-adv-x="653" 
d="M653 0h-183l-33 106h-219l-35 -106h-183l259 712h135zM391 252l-60 190l-64 -190h124zM519 855c-42 -42 -82.999 -63 -122.999 -63c-29.333 0 -56.333 7.33301 -81 22c-19.333 11.333 -38 17 -56 17c-20.667 0 -40 -9 -58 -27l-68 69c42 42 82.667 63 122 63
c29.333 0 56.333 -7.33301 81 -22c19.333 -11.333 37.666 -17 54.999 -17c20.667 0 40 9 58 27z" />
    <glyph glyph-name="Adieresis" unicode="&#xc4;" horiz-adv-x="653" 
d="M653 0h-183l-33 106h-219l-35 -106h-183l259 712h135zM391 252l-60 190l-64 -190h124zM523 852c0 -22 -7.83301 -40.833 -23.5 -56.5s-34.5 -23.5 -56.5 -23.5s-40.833 7.83301 -56.5 23.5s-23.5 34.5 -23.5 56.5s7.83301 40.833 23.5 56.5s34.5 23.5 56.5 23.5
s40.833 -7.83301 56.5 -23.5s23.5 -34.5 23.5 -56.5zM289 852c0 -22 -7.83301 -40.833 -23.5 -56.5s-34.5 -23.5 -56.5 -23.5s-40.833 7.83301 -56.5 23.5s-23.5 34.5 -23.5 56.5s7.83301 40.833 23.5 56.5s34.5 23.5 56.5 23.5s40.833 -7.83301 56.5 -23.5
s23.5 -34.5 23.5 -56.5z" />
    <glyph glyph-name="Aring" unicode="&#xc5;" horiz-adv-x="653" 
d="M653 0h-183l-33 106h-219l-35 -106h-183l259 712h135zM391 252l-60 190l-64 -190h124zM464 893c0 -38 -13.5 -70.499 -40.5 -97.499s-59.5 -40.5 -97.5 -40.5s-70.5 13.5 -97.5 40.5s-40.5 59.5 -40.5 97.5s13.5 70.5 40.5 97.5s59.5 40.5 97.5 40.5
s70.5 -13.333 97.5 -40s40.5 -59.334 40.5 -98.001zM378 893.001c0 14 -5.16699 26.167 -15.5 36.5s-22.5 15.5 -36.5 15.5s-26.167 -5.16699 -36.5 -15.5s-15.5 -22.5 -15.5 -36.5s5.16699 -26.167 15.5 -36.5s22.5 -15.5 36.5 -15.5s26.167 5.16699 36.5 15.5
s15.5 22.5 15.5 36.5z" />
    <glyph glyph-name="AE" unicode="&#xc6;" horiz-adv-x="1013" 
d="M961 0h-484v149h-212l-77 -149h-188l370 712h591v-156h-309v-119h264v-156h-264v-125h309v-156zM477 295v261l-136 -261h136z" />
    <glyph glyph-name="Ccedilla" unicode="&#xc7;" horiz-adv-x="547" 
d="M516 73c-52.667 -52.667 -118.334 -79 -197.001 -79s-144.667 26.667 -198 80c-33.333 33.333 -54.666 76.333 -63.999 129c-5.33301 29.333 -8 80.333 -8 153s2.66699 123.667 8 153c9.33301 52.667 30.666 95.667 63.999 129c53.333 53.333 119.333 80 198 80
s144.334 -26.333 197.001 -79l-116 -116c-26 26 -53 39 -81 39c-30 0 -52.667 -10 -68 -30c-18 -23.333 -27 -82 -27 -176s9 -152.667 27 -176c15.333 -20 38 -30 68 -30c28 0 55 13 81 39zM385 -56l-36 -144h-146l67 144h115z" />
    <glyph glyph-name="Egrave" unicode="&#xc8;" horiz-adv-x="608" 
d="M556 0h-484v712h484v-156h-309v-119h264v-156h-264v-125h309v-156zM366 782h-99l-118 180h168z" />
    <glyph glyph-name="Eacute" unicode="&#xc9;" horiz-adv-x="608" 
d="M556 0h-484v712h484v-156h-309v-119h264v-156h-264v-125h309v-156zM467 962l-118 -180h-99l49 180h168z" />
    <glyph glyph-name="Ecircumflex" unicode="&#xca;" horiz-adv-x="608" 
d="M556 0h-484v712h484v-156h-309v-119h264v-156h-264v-125h309v-156zM507 782h-120l-79 83l-79 -83h-120l136 179h126z" />
    <glyph glyph-name="Edieresis" unicode="&#xcb;" horiz-adv-x="608" 
d="M556 0h-484v712h484v-156h-309v-119h264v-156h-264v-125h309v-156zM505 852c0 -22 -7.83301 -40.833 -23.5 -56.5s-34.5 -23.5 -56.5 -23.5s-40.833 7.83301 -56.5 23.5s-23.5 34.5 -23.5 56.5s7.83301 40.833 23.5 56.5s34.5 23.5 56.5 23.5s40.833 -7.83301 56.5 -23.5
s23.5 -34.5 23.5 -56.5zM271 852c0 -22 -7.83301 -40.833 -23.5 -56.5s-34.5 -23.5 -56.5 -23.5s-40.833 7.83301 -56.5 23.5s-23.5 34.5 -23.5 56.5s7.83301 40.833 23.5 56.5s34.5 23.5 56.5 23.5s40.833 -7.83301 56.5 -23.5s23.5 -34.5 23.5 -56.5z" />
    <glyph glyph-name="Igrave" unicode="&#xcc;" horiz-adv-x="319" 
d="M247 0h-175v712h175v-712zM225 782h-99l-118 180h168z" />
    <glyph glyph-name="Iacute" unicode="&#xcd;" horiz-adv-x="319" 
d="M247 0h-175v712h175v-712zM319 962l-118 -180h-99l49 180h168z" />
    <glyph glyph-name="Icircumflex" unicode="&#xce;" horiz-adv-x="319" 
d="M247 0h-175v712h175v-712zM353 782h-120l-79 83l-79 -83h-120l136 179h126z" />
    <glyph glyph-name="Idieresis" unicode="&#xcf;" horiz-adv-x="319" 
d="M247 0h-175v712h175v-712zM356 852c0 -22 -7.83301 -40.833 -23.5 -56.5s-34.5 -23.5 -56.5 -23.5s-40.833 7.83301 -56.5 23.5s-23.5 34.5 -23.5 56.5s7.83301 40.833 23.5 56.5s34.5 23.5 56.5 23.5s40.833 -7.83301 56.5 -23.5s23.5 -34.5 23.5 -56.5zM122 852
c0 -22 -7.83301 -40.833 -23.5 -56.5s-34.5 -23.5 -56.5 -23.5s-40.833 7.83301 -56.5 23.5s-23.5 34.5 -23.5 56.5s7.83301 40.833 23.5 56.5s34.5 23.5 56.5 23.5s40.833 -7.83301 56.5 -23.5s23.5 -34.5 23.5 -56.5z" />
    <glyph glyph-name="Eth" unicode="&#xd0;" horiz-adv-x="679" 
d="M630 356c0 -80 -2 -131.333 -6 -154c-8.66699 -51.333 -31.334 -95.333 -68.001 -132c-46.667 -46.667 -110.667 -70 -192 -70h-264v293h-65v134h65v285h264c81.333 0 145.333 -23.333 192 -70c36.667 -36.667 59.334 -80.667 68.001 -132c4 -22.667 6 -74 6 -154z
M455 356c0 88 -6.33301 141.334 -19 160.001c-18 26.667 -46 40 -84 40h-77v-129h90v-134h-90v-137h77c38 0 66 13.333 84 40c7.33301 10.667 12.333 24.667 15 42c2.66699 21.333 4 60.666 4 117.999z" />
    <glyph glyph-name="Ntilde" unicode="&#xd1;" horiz-adv-x="700" 
d="M628 0h-153l-228 358v-358h-175v712h153l228 -358v358h175v-712zM543 855c-42 -42 -82.999 -63 -122.999 -63c-29.333 0 -56.333 7.33301 -81 22c-19.333 11.333 -38 17 -56 17c-20.667 0 -40 -9 -58 -27l-68 69c42 42 82.667 63 122 63c29.333 0 56.333 -7.33301 81 -22
c19.333 -11.333 37.666 -17 54.999 -17c20.667 0 40 9 58 27z" />
    <glyph glyph-name="Ograve" unicode="&#xd2;" horiz-adv-x="640" 
d="M591 356c0 -72.667 -2.66699 -123.667 -8 -153c-9.33301 -52.667 -30.666 -95.667 -63.999 -129c-53.333 -53.333 -119.666 -80 -198.999 -80s-145.666 26.667 -198.999 80c-33.333 33.333 -54.666 76.333 -63.999 129c-5.33301 29.333 -8 80.333 -8 153
s2.66699 123.667 8 153c9.33301 52.667 30.666 95.667 63.999 129c53.333 53.333 119.666 80 198.999 80s145.666 -26.667 198.999 -80c33.333 -33.333 54.666 -76.333 63.999 -129c5.33301 -29.333 8 -80.333 8 -153zM416 356c0 94 -8.66895 152.333 -26.002 175
c-16 20.667 -39.333 31 -70 31s-54 -10.333 -70 -31c-17.333 -22.667 -26 -81 -26 -175c0 -93.333 8.33301 -151 25 -173s40.334 -33 71.001 -33s54.334 11 71.001 33s25 79.667 25 173zM377.998 782h-99l-118 180h168z" />
    <glyph glyph-name="Oacute" unicode="&#xd3;" horiz-adv-x="640" 
d="M591 356c0 -72.667 -2.66699 -123.667 -8 -153c-9.33301 -52.667 -30.666 -95.667 -63.999 -129c-53.333 -53.333 -119.666 -80 -198.999 -80s-145.666 26.667 -198.999 80c-33.333 33.333 -54.666 76.333 -63.999 129c-5.33301 29.333 -8 80.333 -8 153
s2.66699 123.667 8 153c9.33301 52.667 30.666 95.667 63.999 129c53.333 53.333 119.666 80 198.999 80s145.666 -26.667 198.999 -80c33.333 -33.333 54.666 -76.333 63.999 -129c5.33301 -29.333 8 -80.333 8 -153zM416 356c0 94 -8.66895 152.333 -26.002 175
c-16 20.667 -39.333 31 -70 31s-54 -10.333 -70 -31c-17.333 -22.667 -26 -81 -26 -175c0 -93.333 8.33301 -151 25 -173s40.334 -33 71.001 -33s54.334 11 71.001 33s25 79.667 25 173zM478.998 962l-118 -180h-99l49 180h168z" />
    <glyph glyph-name="Ocircumflex" unicode="&#xd4;" horiz-adv-x="640" 
d="M591 356c0 -72.667 -2.66699 -123.667 -8 -153c-9.33301 -52.667 -30.666 -95.667 -63.999 -129c-53.333 -53.333 -119.666 -80 -198.999 -80s-145.666 26.667 -198.999 80c-33.333 33.333 -54.666 76.333 -63.999 129c-5.33301 29.333 -8 80.333 -8 153
s2.66699 123.667 8 153c9.33301 52.667 30.666 95.667 63.999 129c53.333 53.333 119.666 80 198.999 80s145.666 -26.667 198.999 -80c33.333 -33.333 54.666 -76.333 63.999 -129c5.33301 -29.333 8 -80.333 8 -153zM416 356c0 94 -8.66895 152.333 -26.002 175
c-16 20.667 -39.333 31 -70 31s-54 -10.333 -70 -31c-17.333 -22.667 -26 -81 -26 -175c0 -93.333 8.33301 -151 25 -173s40.334 -33 71.001 -33s54.334 11 71.001 33s25 79.667 25 173zM518.998 782h-120l-79 83l-79 -83h-120l136 179h126z" />
    <glyph glyph-name="Otilde" unicode="&#xd5;" horiz-adv-x="640" 
d="M591 356c0 -72.667 -2.66699 -123.667 -8 -153c-9.33301 -52.667 -30.666 -95.667 -63.999 -129c-53.333 -53.333 -119.666 -80 -198.999 -80s-145.666 26.667 -198.999 80c-33.333 33.333 -54.666 76.333 -63.999 129c-5.33301 29.333 -8 80.333 -8 153
s2.66699 123.667 8 153c9.33301 52.667 30.666 95.667 63.999 129c53.333 53.333 119.666 80 198.999 80s145.666 -26.667 198.999 -80c33.333 -33.333 54.666 -76.333 63.999 -129c5.33301 -29.333 8 -80.333 8 -153zM416 356c0 94 -8.66895 152.333 -26.002 175
c-16 20.667 -39.333 31 -70 31s-54 -10.333 -70 -31c-17.333 -22.667 -26 -81 -26 -175c0 -93.333 8.33301 -151 25 -173s40.334 -33 71.001 -33s54.334 11 71.001 33s25 79.667 25 173zM512.998 855c-42 -42 -82.999 -63 -122.999 -63c-29.333 0 -56.333 7.33301 -81 22
c-19.333 11.333 -38 17 -56 17c-20.667 0 -40 -9 -58 -27l-68 69c42 42 82.667 63 122 63c29.333 0 56.333 -7.33301 81 -22c19.333 -11.333 37.666 -17 54.999 -17c20.667 0 40 9 58 27z" />
    <glyph glyph-name="Odieresis" unicode="&#xd6;" horiz-adv-x="640" 
d="M591 356c0 -72.667 -2.66699 -123.667 -8 -153c-9.33301 -52.667 -30.666 -95.667 -63.999 -129c-53.333 -53.333 -119.666 -80 -198.999 -80s-145.666 26.667 -198.999 80c-33.333 33.333 -54.666 76.333 -63.999 129c-5.33301 29.333 -8 80.333 -8 153
s2.66699 123.667 8 153c9.33301 52.667 30.666 95.667 63.999 129c53.333 53.333 119.666 80 198.999 80s145.666 -26.667 198.999 -80c33.333 -33.333 54.666 -76.333 63.999 -129c5.33301 -29.333 8 -80.333 8 -153zM416 356c0 94 -8.66895 152.333 -26.002 175
c-16 20.667 -39.333 31 -70 31s-54 -10.333 -70 -31c-17.333 -22.667 -26 -81 -26 -175c0 -93.333 8.33301 -151 25 -173s40.334 -33 71.001 -33s54.334 11 71.001 33s25 79.667 25 173zM516.998 852c0 -22 -7.83301 -40.833 -23.5 -56.5s-34.5 -23.5 -56.5 -23.5
s-40.833 7.83301 -56.5 23.5s-23.5 34.5 -23.5 56.5s7.83301 40.833 23.5 56.5s34.5 23.5 56.5 23.5s40.833 -7.83301 56.5 -23.5s23.5 -34.5 23.5 -56.5zM282.998 852c0 -22 -7.83301 -40.833 -23.5 -56.5s-34.5 -23.5 -56.5 -23.5s-40.833 7.83301 -56.5 23.5
s-23.5 34.5 -23.5 56.5s7.83301 40.833 23.5 56.5s34.5 23.5 56.5 23.5s40.833 -7.83301 56.5 -23.5s23.5 -34.5 23.5 -56.5z" />
    <glyph glyph-name="multiply" unicode="&#xd7;" horiz-adv-x="556" 
d="M517 161l-104 -104l-135 135l-134 -135l-105 104l136 134l-136 135l104 104l134 -135l135 135l105 -104l-136 -135z" />
    <glyph glyph-name="Oslash" unicode="&#xd8;" horiz-adv-x="640" 
d="M591 356c0 -72.667 -2.66699 -123.667 -8 -153c-9.33301 -52.667 -30.666 -95.667 -63.999 -129c-53.333 -53.333 -119.666 -80 -198.999 -80c-40 0 -75 6 -105 18l-27 -56h-118l55 114l-4 4c-33.333 33.333 -54.666 76.333 -63.999 129
c-5.33301 29.333 -8 80.333 -8 153s2.66699 123.667 8 153c9.33301 52.667 30.666 95.667 63.999 129c53.333 53.333 119.666 80 198.999 80c40 0 75 -6 105 -18l27 56h118l-55 -114l4 -4c33.333 -33.333 54.666 -76.333 63.999 -129c5.33301 -29.333 8 -80.333 8 -153z
M364 552c-13.333 6.66699 -28 10 -44 10c-30.667 0 -54 -10.333 -70 -31c-17.333 -22.667 -26 -81 -26 -175c0 -38.667 1 -69.667 3 -93zM416 356c0 39.333 -1.00195 70.333 -3.00195 93l-137 -288c12.667 -7.33301 27.334 -11 44.001 -11c30.667 0 54.334 11 71.001 33
s25 79.667 25 173z" />
    <glyph glyph-name="Ugrave" unicode="&#xd9;" horiz-adv-x="660" 
d="M600 250c0 -76 -26.166 -137.667 -78.499 -185s-116.5 -71 -192.5 -71s-139.333 23.333 -190 70c-52.667 48 -79 110 -79 186v462h175v-458c0 -32.667 8.33301 -58.167 25 -76.5s39.667 -27.5 69 -27.5s52.666 9.16699 69.999 27.5s26 43.833 26 76.5v458h175v-462z
M388.001 782h-99l-118 180h168z" />
    <glyph glyph-name="Uacute" unicode="&#xda;" horiz-adv-x="660" 
d="M600 250c0 -76 -26.166 -137.667 -78.499 -185s-116.5 -71 -192.5 -71s-139.333 23.333 -190 70c-52.667 48 -79 110 -79 186v462h175v-458c0 -32.667 8.33301 -58.167 25 -76.5s39.667 -27.5 69 -27.5s52.666 9.16699 69.999 27.5s26 43.833 26 76.5v458h175v-462z
M489.001 962l-118 -180h-99l49 180h168z" />
    <glyph glyph-name="Ucircumflex" unicode="&#xdb;" horiz-adv-x="660" 
d="M600 250c0 -76 -26.166 -137.667 -78.499 -185s-116.5 -71 -192.5 -71s-139.333 23.333 -190 70c-52.667 48 -79 110 -79 186v462h175v-458c0 -32.667 8.33301 -58.167 25 -76.5s39.667 -27.5 69 -27.5s52.666 9.16699 69.999 27.5s26 43.833 26 76.5v458h175v-462z
M529.001 782h-120l-79 83l-79 -83h-120l136 179h126z" />
    <glyph glyph-name="Udieresis" unicode="&#xdc;" horiz-adv-x="660" 
d="M600 250c0 -76 -26.166 -137.667 -78.499 -185s-116.5 -71 -192.5 -71s-139.333 23.333 -190 70c-52.667 48 -79 110 -79 186v462h175v-458c0 -32.667 8.33301 -58.167 25 -76.5s39.667 -27.5 69 -27.5s52.666 9.16699 69.999 27.5s26 43.833 26 76.5v458h175v-462z
M527.001 852c0 -22 -7.83301 -40.833 -23.5 -56.5s-34.5 -23.5 -56.5 -23.5s-40.833 7.83301 -56.5 23.5s-23.5 34.5 -23.5 56.5s7.83301 40.833 23.5 56.5s34.5 23.5 56.5 23.5s40.833 -7.83301 56.5 -23.5s23.5 -34.5 23.5 -56.5zM293.001 852
c0 -22 -7.83301 -40.833 -23.5 -56.5s-34.5 -23.5 -56.5 -23.5s-40.833 7.83301 -56.5 23.5s-23.5 34.5 -23.5 56.5s7.83301 40.833 23.5 56.5s34.5 23.5 56.5 23.5s40.833 -7.83301 56.5 -23.5s23.5 -34.5 23.5 -56.5z" />
    <glyph glyph-name="Yacute" unicode="&#xdd;" horiz-adv-x="605" 
d="M605 712l-215 -422v-290h-175v290l-215 422h191l112 -256l111 256h191zM461 962l-118 -180h-99l49 180h168z" />
    <glyph glyph-name="Thorn" unicode="&#xde;" horiz-adv-x="627" 
d="M597 360c0 -62.667 -20.667 -115.332 -62 -157.999c-45.333 -47.333 -105.666 -71 -180.999 -71h-107v-131h-175v712h175v-123h107c75.333 0 135.666 -23.667 180.999 -71c41.333 -42.667 62 -95.334 62 -158.001zM422 360.002c0 19.333 -7 36.168 -21 50.501
s-32.333 21.5 -55 21.5h-99v-144h99c22.667 0 41 7.16699 55 21.5s21 31.166 21 50.499z" />
    <glyph glyph-name="germandbls" unicode="&#xdf;" horiz-adv-x="584" 
d="M534 173c0 -115.333 -60 -173 -180 -173h-52v138h19c32 0 48 16 48 48v129c0 32 -16 48 -48 48h-19v126h23c29.333 0 44 14 44 42c0 29.333 -22.333 44 -67 44c-28 0 -47.5 -5.66699 -58.5 -17s-16.5 -29 -16.5 -53v-505h-165v519c0 132.667 80 199 240 199
c71.333 0 127 -14.667 167 -44c43.333 -30.667 65 -76.334 65 -137.001c0 -49.333 -20.333 -85.666 -61 -108.999c40.667 -20 61 -54.333 61 -103v-152z" />
    <glyph glyph-name="agrave" unicode="&#xe0;" horiz-adv-x="536" 
d="M483 0h-160v44c-32.667 -32.667 -72.667 -49 -120 -49c-54 0 -96.833 15.833 -128.5 47.5s-47.5 73.834 -47.5 126.501c0 44 14.667 80 44 108c32.667 32 79 48 139 48h109v14c0 44.667 -27 67 -81 67c-33.333 0 -62 -12 -86 -36l-102 102
c27.333 27.333 55.333 46.166 84 56.499s66 15.5 112 15.5c158 0 237 -65 237 -195v-349zM319 202v14h-83c-34.667 0 -52 -14.333 -52 -43c0 -30 18 -45 54 -45c29.333 0 51 6.66699 65 20c10.667 10 16 28 16 54zM324 610h-99l-118 180h168z" />
    <glyph glyph-name="aacute" unicode="&#xe1;" horiz-adv-x="536" 
d="M483 0h-160v44c-32.667 -32.667 -72.667 -49 -120 -49c-54 0 -96.833 15.833 -128.5 47.5s-47.5 73.834 -47.5 126.501c0 44 14.667 80 44 108c32.667 32 79 48 139 48h109v14c0 44.667 -27 67 -81 67c-33.333 0 -62 -12 -86 -36l-102 102
c27.333 27.333 55.333 46.166 84 56.499s66 15.5 112 15.5c158 0 237 -65 237 -195v-349zM319 202v14h-83c-34.667 0 -52 -14.333 -52 -43c0 -30 18 -45 54 -45c29.333 0 51 6.66699 65 20c10.667 10 16 28 16 54zM425 790l-118 -180h-99l49 180h168z" />
    <glyph glyph-name="acircumflex" unicode="&#xe2;" horiz-adv-x="536" 
d="M483 0h-160v44c-32.667 -32.667 -72.667 -49 -120 -49c-54 0 -96.833 15.833 -128.5 47.5s-47.5 73.834 -47.5 126.501c0 44 14.667 80 44 108c32.667 32 79 48 139 48h109v14c0 44.667 -27 67 -81 67c-33.333 0 -62 -12 -86 -36l-102 102
c27.333 27.333 55.333 46.166 84 56.499s66 15.5 112 15.5c158 0 237 -65 237 -195v-349zM319 202v14h-83c-34.667 0 -52 -14.333 -52 -43c0 -30 18 -45 54 -45c29.333 0 51 6.66699 65 20c10.667 10 16 28 16 54zM465 610h-120l-79 83l-79 -83h-120l136 179h126z" />
    <glyph glyph-name="atilde" unicode="&#xe3;" horiz-adv-x="536" 
d="M483 0h-160v44c-32.667 -32.667 -72.667 -49 -120 -49c-54 0 -96.833 15.833 -128.5 47.5s-47.5 73.834 -47.5 126.501c0 44 14.667 80 44 108c32.667 32 79 48 139 48h109v14c0 44.667 -27 67 -81 67c-33.333 0 -62 -12 -86 -36l-102 102
c27.333 27.333 55.333 46.166 84 56.499s66 15.5 112 15.5c158 0 237 -65 237 -195v-349zM319 202v14h-83c-34.667 0 -52 -14.333 -52 -43c0 -30 18 -45 54 -45c29.333 0 51 6.66699 65 20c10.667 10 16 28 16 54zM459 683c-42 -42 -82.999 -63 -122.999 -63
c-29.333 0 -56.333 7.33301 -81 22c-19.333 11.333 -38 17 -56 17c-20.667 0 -40 -9 -58 -27l-68 69c42 42 82.667 63 122 63c29.333 0 56.333 -7.33301 81 -22c19.333 -11.333 37.666 -17 54.999 -17c20.667 0 40 9 58 27z" />
    <glyph glyph-name="adieresis" unicode="&#xe4;" horiz-adv-x="536" 
d="M483 0h-160v44c-32.667 -32.667 -72.667 -49 -120 -49c-54 0 -96.833 15.833 -128.5 47.5s-47.5 73.834 -47.5 126.501c0 44 14.667 80 44 108c32.667 32 79 48 139 48h109v14c0 44.667 -27 67 -81 67c-33.333 0 -62 -12 -86 -36l-102 102
c27.333 27.333 55.333 46.166 84 56.499s66 15.5 112 15.5c158 0 237 -65 237 -195v-349zM319 202v14h-83c-34.667 0 -52 -14.333 -52 -43c0 -30 18 -45 54 -45c29.333 0 51 6.66699 65 20c10.667 10 16 28 16 54zM463 680c0 -22 -7.83301 -40.833 -23.5 -56.5
s-34.5 -23.5 -56.5 -23.5s-40.833 7.83301 -56.5 23.5s-23.5 34.5 -23.5 56.5s7.83301 40.833 23.5 56.5s34.5 23.5 56.5 23.5s40.833 -7.83301 56.5 -23.5s23.5 -34.5 23.5 -56.5zM229 680c0 -22 -7.83301 -40.833 -23.5 -56.5s-34.5 -23.5 -56.5 -23.5
s-40.833 7.83301 -56.5 23.5s-23.5 34.5 -23.5 56.5s7.83301 40.833 23.5 56.5s34.5 23.5 56.5 23.5s40.833 -7.83301 56.5 -23.5s23.5 -34.5 23.5 -56.5z" />
    <glyph glyph-name="aring" unicode="&#xe5;" horiz-adv-x="536" 
d="M483 0h-160v44c-32.667 -32.667 -72.667 -49 -120 -49c-54 0 -96.833 15.833 -128.5 47.5s-47.5 73.834 -47.5 126.501c0 44 14.667 80 44 108c32.667 32 79 48 139 48h109v14c0 44.667 -27 67 -81 67c-33.333 0 -62 -12 -86 -36l-102 102
c27.333 27.333 55.333 46.166 84 56.499s66 15.5 112 15.5c158 0 237 -65 237 -195v-349zM319 202v14h-83c-34.667 0 -52 -14.333 -52 -43c0 -30 18 -45 54 -45c29.333 0 51 6.66699 65 20c10.667 10 16 28 16 54zM404 731c0 -38 -13.5 -70.499 -40.5 -97.499
s-59.5 -40.5 -97.5 -40.5s-70.5 13.5 -97.5 40.5s-40.5 59.5 -40.5 97.5s13.5 70.5 40.5 97.5s59.5 40.5 97.5 40.5s70.5 -13.333 97.5 -40s40.5 -59.334 40.5 -98.001zM318 731.001c0 14 -5.16699 26.167 -15.5 36.5s-22.5 15.5 -36.5 15.5s-26.167 -5.16699 -36.5 -15.5
s-15.5 -22.5 -15.5 -36.5s5.16699 -26.167 15.5 -36.5s22.5 -15.5 36.5 -15.5s26.167 5.16699 36.5 15.5s15.5 22.5 15.5 36.5z" />
    <glyph glyph-name="ae" unicode="&#xe6;" horiz-adv-x="840" 
d="M802 216l-322.002 -0.000976562c0 -23.333 8.33301 -42.666 25 -57.999c17.333 -17.333 40.666 -26 69.999 -26c44 0 81 15 111 45l98 -98c-29.333 -29.333 -58.666 -50.333 -87.999 -63c-33.333 -14.667 -73.666 -22 -120.999 -22c-82 0 -144.667 21.667 -188 65
c-30 -27.333 -60.667 -45.666 -92 -54.999c-22 -6.66699 -52.667 -10 -92 -10c-53.333 0 -96 16 -128 48s-48 74.333 -48 127c0 44 14.667 80 44 108c32.667 32 79 48 139 48h109v14c0 44.667 -27 67 -81 67c-33.333 0 -62 -12 -86 -36l-102 102
c27.333 27.333 55.333 46.166 84 56.499s66 15.5 112 15.5c74.667 0 131.334 -15 170.001 -45c39.333 30 87.333 45 144 45c75.333 0 135.333 -25 180 -75c41.333 -46.667 62 -106.667 62 -180v-73zM639.998 324.999c0 25.333 -7.16602 45.667 -21.499 61
s-33.833 23 -58.5 23c-34.667 0 -58.334 -14 -71.001 -42c-6 -13.333 -9 -27.333 -9 -42h160zM318.999 202v14h-83c-34.667 0 -52 -14.333 -52 -43c0 -30 18 -45 54 -45c29.333 0 51 6.66699 65 20c10.667 10 16 28 16 54z" />
    <glyph glyph-name="ccedilla" unicode="&#xe7;" horiz-adv-x="475" 
d="M457 63c-46 -46 -105 -69 -177 -69c-63.333 0 -115.333 16.333 -156 49c-57.333 46.667 -86 122 -86 226s28.667 179.333 86 226c40.667 32.667 92.667 49 156 49c72 0 131 -23 177 -69l-111 -111c-21.333 21.333 -43.333 32 -66 32c-52 0 -78 -42.333 -78 -127
s26 -127 78 -127c22.667 0 44.667 10.667 66 32zM333 -56l-36 -144h-146l67 144h115z" />
    <glyph glyph-name="egrave" unicode="&#xe8;" horiz-adv-x="559" 
d="M521 216l-322.001 -0.000976562c0 -23.333 8.33301 -42.666 25 -57.999c17.333 -17.333 40.666 -26 69.999 -26c44 0 81 15 111 45l98 -98c-29.333 -29.333 -58.666 -50.333 -87.999 -63c-33.333 -14.667 -73.666 -22 -120.999 -22c-170.667 0 -256 91.667 -256 275
c0 86 22.667 154 68 204c43.333 47.333 101 71 173 71c75.333 0 135.333 -25 180 -75c41.333 -46.667 62 -106.667 62 -180v-73zM358.999 324.999c0 25.333 -7.16602 45.667 -21.499 61s-33.833 23 -58.5 23c-34.667 0 -58.334 -14 -71.001 -42
c-6 -13.333 -9 -27.333 -9 -42h160zM341 610h-99l-118 180h168z" />
    <glyph glyph-name="eacute" unicode="&#xe9;" horiz-adv-x="559" 
d="M521 216l-322.001 -0.000976562c0 -23.333 8.33301 -42.666 25 -57.999c17.333 -17.333 40.666 -26 69.999 -26c44 0 81 15 111 45l98 -98c-29.333 -29.333 -58.666 -50.333 -87.999 -63c-33.333 -14.667 -73.666 -22 -120.999 -22c-170.667 0 -256 91.667 -256 275
c0 86 22.667 154 68 204c43.333 47.333 101 71 173 71c75.333 0 135.333 -25 180 -75c41.333 -46.667 62 -106.667 62 -180v-73zM358.999 324.999c0 25.333 -7.16602 45.667 -21.499 61s-33.833 23 -58.5 23c-34.667 0 -58.334 -14 -71.001 -42
c-6 -13.333 -9 -27.333 -9 -42h160zM442 790l-118 -180h-99l49 180h168z" />
    <glyph glyph-name="ecircumflex" unicode="&#xea;" horiz-adv-x="559" 
d="M521 216l-322.001 -0.000976562c0 -23.333 8.33301 -42.666 25 -57.999c17.333 -17.333 40.666 -26 69.999 -26c44 0 81 15 111 45l98 -98c-29.333 -29.333 -58.666 -50.333 -87.999 -63c-33.333 -14.667 -73.666 -22 -120.999 -22c-170.667 0 -256 91.667 -256 275
c0 86 22.667 154 68 204c43.333 47.333 101 71 173 71c75.333 0 135.333 -25 180 -75c41.333 -46.667 62 -106.667 62 -180v-73zM358.999 324.999c0 25.333 -7.16602 45.667 -21.499 61s-33.833 23 -58.5 23c-34.667 0 -58.334 -14 -71.001 -42
c-6 -13.333 -9 -27.333 -9 -42h160zM482 610h-120l-79 83l-79 -83h-120l136 179h126z" />
    <glyph glyph-name="edieresis" unicode="&#xeb;" horiz-adv-x="559" 
d="M521 216l-322.001 -0.000976562c0 -23.333 8.33301 -42.666 25 -57.999c17.333 -17.333 40.666 -26 69.999 -26c44 0 81 15 111 45l98 -98c-29.333 -29.333 -58.666 -50.333 -87.999 -63c-33.333 -14.667 -73.666 -22 -120.999 -22c-170.667 0 -256 91.667 -256 275
c0 86 22.667 154 68 204c43.333 47.333 101 71 173 71c75.333 0 135.333 -25 180 -75c41.333 -46.667 62 -106.667 62 -180v-73zM358.999 324.999c0 25.333 -7.16602 45.667 -21.499 61s-33.833 23 -58.5 23c-34.667 0 -58.334 -14 -71.001 -42
c-6 -13.333 -9 -27.333 -9 -42h160zM480 680c0 -22 -7.83301 -40.833 -23.5 -56.5s-34.5 -23.5 -56.5 -23.5s-40.833 7.83301 -56.5 23.5s-23.5 34.5 -23.5 56.5s7.83301 40.833 23.5 56.5s34.5 23.5 56.5 23.5s40.833 -7.83301 56.5 -23.5s23.5 -34.5 23.5 -56.5zM246 680
c0 -22 -7.83301 -40.833 -23.5 -56.5s-34.5 -23.5 -56.5 -23.5s-40.833 7.83301 -56.5 23.5s-23.5 34.5 -23.5 56.5s7.83301 40.833 23.5 56.5s34.5 23.5 56.5 23.5s40.833 -7.83301 56.5 -23.5s23.5 -34.5 23.5 -56.5z" />
    <glyph glyph-name="igrave" unicode="&#xec;" horiz-adv-x="288" 
d="M226 0h-164v538h164v-538zM221 610h-99l-118 180h168z" />
    <glyph glyph-name="iacute" unicode="&#xed;" horiz-adv-x="288" 
d="M226 0h-164v538h164v-538zM285 790l-118 -180h-99l49 180h168z" />
    <glyph glyph-name="icircumflex" unicode="&#xee;" horiz-adv-x="288" 
d="M226 0h-164v538h164v-538zM343 610h-120l-79 83l-79 -83h-120l136 179h126z" />
    <glyph glyph-name="idieresis" unicode="&#xef;" horiz-adv-x="288" 
d="M226 0h-164v538h164v-538zM343 680c0 -22 -7.83301 -40.833 -23.5 -56.5s-34.5 -23.5 -56.5 -23.5s-40.833 7.83301 -56.5 23.5s-23.5 34.5 -23.5 56.5s7.83301 40.833 23.5 56.5s34.5 23.5 56.5 23.5s40.833 -7.83301 56.5 -23.5s23.5 -34.5 23.5 -56.5zM109 680
c0 -22 -7.83301 -40.833 -23.5 -56.5s-34.5 -23.5 -56.5 -23.5s-40.833 7.83301 -56.5 23.5s-23.5 34.5 -23.5 56.5s7.83301 40.833 23.5 56.5s34.5 23.5 56.5 23.5s40.833 -7.83301 56.5 -23.5s23.5 -34.5 23.5 -56.5z" />
    <glyph glyph-name="eth" unicode="&#xf0;" horiz-adv-x="550" 
d="M499 259c0 -48 -3.33496 -85 -10.002 -111c-9.33301 -38 -27.666 -70 -54.999 -96c-40.667 -38.667 -93.667 -58 -159 -58c-70 0 -125.667 22 -167 66c-22 23.333 -37 49.5 -45 78.5s-12 69.167 -12 120.5s4 91.5 12 120.5s23 55.167 45 78.5
c38.667 41.333 87.334 63 146.001 65l-20 40h-113v114h57l-22 46h176l22 -46h97v-114h-41l26 -57c24.667 -54 40.667 -94.333 48 -121c10 -35.333 15 -77.333 15 -126zM334.998 259c0 37.333 -2 62.666 -6 75.999c-8.66699 27.333 -26.667 41 -54 41
s-45.333 -13.667 -54 -41c-4 -13.333 -6 -38.666 -6 -75.999s2 -62.666 6 -75.999c8.66699 -27.333 26.667 -41 54 -41s45.333 13.667 54 41c4 13.333 6 38.666 6 75.999z" />
    <glyph glyph-name="ntilde" unicode="&#xf1;" horiz-adv-x="579" 
d="M522 0h-164v322c0 27.333 -8.33301 47.333 -25 60c-11.333 9.33301 -25 14 -41 14s-29.667 -4.66699 -41 -14c-16.667 -12.667 -25 -32.667 -25 -60v-322h-164v538h160v-44c33.333 33.333 75 50 125 50s90.333 -15.333 121 -46c36 -36 54 -87.333 54 -154v-344zM485 683
c-42 -42 -82.999 -63 -122.999 -63c-29.333 0 -56.333 7.33301 -81 22c-19.333 11.333 -38 17 -56 17c-20.667 0 -40 -9 -58 -27l-68 69c42 42 82.667 63 122 63c29.333 0 56.333 -7.33301 81 -22c19.333 -11.333 37.666 -17 54.999 -17c20.667 0 40 9 58 27z" />
    <glyph glyph-name="ograve" unicode="&#xf2;" horiz-adv-x="550" 
d="M507 269c0 -53.333 -4.16699 -95 -12.5 -125s-23.833 -57 -46.5 -81c-42.667 -46 -100.334 -69 -173.001 -69s-130.334 23 -173.001 69c-22.667 24 -38.167 51 -46.5 81s-12.5 71.667 -12.5 125s4.16699 95 12.5 125s23.833 57 46.5 81c42.667 46 100.334 69 173.001 69
s130.334 -23 173.001 -69c22.667 -24 38.167 -51 46.5 -81s12.5 -71.667 12.5 -125zM343 269c0 40 -2.33301 67.667 -7 83c-10 29.333 -30.333 44 -61 44s-51 -14.667 -61 -44c-4.66699 -15.333 -7 -43 -7 -83s2.33301 -67.667 7 -83c10 -29.333 30.333 -44 61 -44
s51 14.667 61 44c4.66699 15.333 7 43 7 83zM333 610h-99l-118 180h168z" />
    <glyph glyph-name="oacute" unicode="&#xf3;" horiz-adv-x="550" 
d="M507 269c0 -53.333 -4.16699 -95 -12.5 -125s-23.833 -57 -46.5 -81c-42.667 -46 -100.334 -69 -173.001 -69s-130.334 23 -173.001 69c-22.667 24 -38.167 51 -46.5 81s-12.5 71.667 -12.5 125s4.16699 95 12.5 125s23.833 57 46.5 81c42.667 46 100.334 69 173.001 69
s130.334 -23 173.001 -69c22.667 -24 38.167 -51 46.5 -81s12.5 -71.667 12.5 -125zM343 269c0 40 -2.33301 67.667 -7 83c-10 29.333 -30.333 44 -61 44s-51 -14.667 -61 -44c-4.66699 -15.333 -7 -43 -7 -83s2.33301 -67.667 7 -83c10 -29.333 30.333 -44 61 -44
s51 14.667 61 44c4.66699 15.333 7 43 7 83zM434 790l-118 -180h-99l49 180h168z" />
    <glyph glyph-name="ocircumflex" unicode="&#xf4;" horiz-adv-x="550" 
d="M507 269c0 -53.333 -4.16699 -95 -12.5 -125s-23.833 -57 -46.5 -81c-42.667 -46 -100.334 -69 -173.001 -69s-130.334 23 -173.001 69c-22.667 24 -38.167 51 -46.5 81s-12.5 71.667 -12.5 125s4.16699 95 12.5 125s23.833 57 46.5 81c42.667 46 100.334 69 173.001 69
s130.334 -23 173.001 -69c22.667 -24 38.167 -51 46.5 -81s12.5 -71.667 12.5 -125zM343 269c0 40 -2.33301 67.667 -7 83c-10 29.333 -30.333 44 -61 44s-51 -14.667 -61 -44c-4.66699 -15.333 -7 -43 -7 -83s2.33301 -67.667 7 -83c10 -29.333 30.333 -44 61 -44
s51 14.667 61 44c4.66699 15.333 7 43 7 83zM474 610h-120l-79 83l-79 -83h-120l136 179h126z" />
    <glyph glyph-name="otilde" unicode="&#xf5;" horiz-adv-x="550" 
d="M507 269c0 -53.333 -4.16699 -95 -12.5 -125s-23.833 -57 -46.5 -81c-42.667 -46 -100.334 -69 -173.001 -69s-130.334 23 -173.001 69c-22.667 24 -38.167 51 -46.5 81s-12.5 71.667 -12.5 125s4.16699 95 12.5 125s23.833 57 46.5 81c42.667 46 100.334 69 173.001 69
s130.334 -23 173.001 -69c22.667 -24 38.167 -51 46.5 -81s12.5 -71.667 12.5 -125zM343 269c0 40 -2.33301 67.667 -7 83c-10 29.333 -30.333 44 -61 44s-51 -14.667 -61 -44c-4.66699 -15.333 -7 -43 -7 -83s2.33301 -67.667 7 -83c10 -29.333 30.333 -44 61 -44
s51 14.667 61 44c4.66699 15.333 7 43 7 83zM468 683c-42 -42 -82.999 -63 -122.999 -63c-29.333 0 -56.333 7.33301 -81 22c-19.333 11.333 -38 17 -56 17c-20.667 0 -40 -9 -58 -27l-68 69c42 42 82.667 63 122 63c29.333 0 56.333 -7.33301 81 -22
c19.333 -11.333 37.666 -17 54.999 -17c20.667 0 40 9 58 27z" />
    <glyph glyph-name="odieresis" unicode="&#xf6;" horiz-adv-x="550" 
d="M507 269c0 -53.333 -4.16699 -95 -12.5 -125s-23.833 -57 -46.5 -81c-42.667 -46 -100.334 -69 -173.001 -69s-130.334 23 -173.001 69c-22.667 24 -38.167 51 -46.5 81s-12.5 71.667 -12.5 125s4.16699 95 12.5 125s23.833 57 46.5 81c42.667 46 100.334 69 173.001 69
s130.334 -23 173.001 -69c22.667 -24 38.167 -51 46.5 -81s12.5 -71.667 12.5 -125zM343 269c0 40 -2.33301 67.667 -7 83c-10 29.333 -30.333 44 -61 44s-51 -14.667 -61 -44c-4.66699 -15.333 -7 -43 -7 -83s2.33301 -67.667 7 -83c10 -29.333 30.333 -44 61 -44
s51 14.667 61 44c4.66699 15.333 7 43 7 83zM472 680c0 -22 -7.83301 -40.833 -23.5 -56.5s-34.5 -23.5 -56.5 -23.5s-40.833 7.83301 -56.5 23.5s-23.5 34.5 -23.5 56.5s7.83301 40.833 23.5 56.5s34.5 23.5 56.5 23.5s40.833 -7.83301 56.5 -23.5s23.5 -34.5 23.5 -56.5z
M238 680c0 -22 -7.83301 -40.833 -23.5 -56.5s-34.5 -23.5 -56.5 -23.5s-40.833 7.83301 -56.5 23.5s-23.5 34.5 -23.5 56.5s7.83301 40.833 23.5 56.5s34.5 23.5 56.5 23.5s40.833 -7.83301 56.5 -23.5s23.5 -34.5 23.5 -56.5z" />
    <glyph glyph-name="divide" unicode="&#xf7;" horiz-adv-x="556" 
d="M383 518c0 -28.667 -10.167 -53.334 -30.5 -74.001s-45.166 -31 -74.499 -31c-28.667 0 -53.334 10.333 -74.001 31s-31 45.334 -31 74.001c0 29.333 10.333 54.166 31 74.499s45.334 30.5 74.001 30.5c29.333 0 54.166 -10.167 74.499 -30.5s30.5 -45.166 30.5 -74.499z
M513 218h-470v154h470v-154zM383 72c0 -28.667 -10.167 -53.334 -30.5 -74.001s-45.166 -31 -74.499 -31c-28.667 0 -53.334 10.333 -74.001 31s-31 45.334 -31 74.001c0 29.333 10.333 54.166 31 74.499s45.334 30.5 74.001 30.5c29.333 0 54.166 -10.167 74.499 -30.5
s30.5 -45.166 30.5 -74.499z" />
    <glyph glyph-name="oslash" unicode="&#xf8;" horiz-adv-x="550" 
d="M507 269c0 -53.333 -4.16602 -95 -12.499 -125s-23.833 -57 -46.5 -81c-42.667 -46 -100.334 -69 -173.001 -69c-38 0 -72.667 6.66699 -104 20l-34 -58h-93l61 104c-26.667 28 -44.334 60.333 -53.001 97c-6 24.667 -9 62 -9 112c0 53.333 4.16699 95 12.5 125
s23.833 57 46.5 81c42.667 46 100.334 69 173.001 69c38 0 72.667 -6.66699 104 -20l34 58h93l-61 -104c26 -28 43.667 -60.333 53 -97c6 -26 9 -63.333 9 -112zM309.001 389c-8.66699 4.66699 -20 7 -34 7c-30.667 0 -51 -14.667 -61 -44c-4.66699 -15.333 -7 -43 -7 -83
c0 -24 0.666992 -40.667 2 -50zM343.001 269c0 24 -0.666992 40.667 -2 50l-100 -170c8.66699 -4.66699 20 -7 34 -7c30.667 0 51 14.667 61 44c4.66699 15.333 7 43 7 83z" />
    <glyph glyph-name="ugrave" unicode="&#xf9;" horiz-adv-x="579" 
d="M517 0h-160v44c-33.333 -33.333 -75 -50 -125 -50s-90.333 15.333 -121 46c-36 36 -54 87.333 -54 154v344h164v-322c0 -27.333 8.33301 -47.333 25 -60c11.333 -9.33301 25 -14 41 -14s29.667 4.66699 41 14c16.667 12.667 25 32.667 25 60v322h164v-538zM345 610h-99
l-118 180h168z" />
    <glyph glyph-name="uacute" unicode="&#xfa;" horiz-adv-x="579" 
d="M517 0h-160v44c-33.333 -33.333 -75 -50 -125 -50s-90.333 15.333 -121 46c-36 36 -54 87.333 -54 154v344h164v-322c0 -27.333 8.33301 -47.333 25 -60c11.333 -9.33301 25 -14 41 -14s29.667 4.66699 41 14c16.667 12.667 25 32.667 25 60v322h164v-538zM446 790
l-118 -180h-99l49 180h168z" />
    <glyph glyph-name="ucircumflex" unicode="&#xfb;" horiz-adv-x="579" 
d="M517 0h-160v44c-33.333 -33.333 -75 -50 -125 -50s-90.333 15.333 -121 46c-36 36 -54 87.333 -54 154v344h164v-322c0 -27.333 8.33301 -47.333 25 -60c11.333 -9.33301 25 -14 41 -14s29.667 4.66699 41 14c16.667 12.667 25 32.667 25 60v322h164v-538zM486 610h-120
l-79 83l-79 -83h-120l136 179h126z" />
    <glyph glyph-name="udieresis" unicode="&#xfc;" horiz-adv-x="579" 
d="M517 0h-160v44c-33.333 -33.333 -75 -50 -125 -50s-90.333 15.333 -121 46c-36 36 -54 87.333 -54 154v344h164v-322c0 -27.333 8.33301 -47.333 25 -60c11.333 -9.33301 25 -14 41 -14s29.667 4.66699 41 14c16.667 12.667 25 32.667 25 60v322h164v-538zM484 680
c0 -22 -7.83301 -40.833 -23.5 -56.5s-34.5 -23.5 -56.5 -23.5s-40.833 7.83301 -56.5 23.5s-23.5 34.5 -23.5 56.5s7.83301 40.833 23.5 56.5s34.5 23.5 56.5 23.5s40.833 -7.83301 56.5 -23.5s23.5 -34.5 23.5 -56.5zM250 680c0 -22 -7.83301 -40.833 -23.5 -56.5
s-34.5 -23.5 -56.5 -23.5s-40.833 7.83301 -56.5 23.5s-23.5 34.5 -23.5 56.5s7.83301 40.833 23.5 56.5s34.5 23.5 56.5 23.5s40.833 -7.83301 56.5 -23.5s23.5 -34.5 23.5 -56.5z" />
    <glyph glyph-name="yacute" unicode="&#xfd;" horiz-adv-x="514" 
d="M522 538l-223 -602c-28.667 -77.333 -83 -116 -163 -116h-62v148h35c28 0 46.333 13.333 55 40l15 45l-179 485h172l91 -279l87 279h172zM416 790l-118 -180h-99l49 180h168z" />
    <glyph glyph-name="thorn" unicode="&#xfe;" horiz-adv-x="571" 
d="M526 269c0 -58.667 -1.66699 -99.6689 -5 -123.002c-6.66699 -45.333 -21.667 -79.666 -45 -102.999c-32.667 -32.667 -76 -49 -130 -49c-50 0 -90 15 -120 45v-213h-164v886h164v-213c30 30 70 45 120 45c54 0 97.333 -16.333 130 -49
c23.333 -23.333 38.333 -57.666 45 -102.999c3.33301 -23.333 5 -64.333 5 -123zM362 268.998c0 44.667 -3.66699 75.667 -11 93c-10 22.667 -29 34 -57 34s-47 -11.333 -57 -34c-7.33301 -17.333 -11 -48.333 -11 -93s3.66699 -75.667 11 -93c10 -22.667 29 -34 57 -34
s47 11.333 57 34c7.33301 17.333 11 48.333 11 93z" />
    <glyph glyph-name="ydieresis" unicode="&#xff;" horiz-adv-x="514" 
d="M522 538l-223 -602c-28.667 -77.333 -83 -116 -163 -116h-62v148h35c28 0 46.333 13.333 55 40l15 45l-179 485h172l91 -279l87 279h172zM454 680c0 -22 -7.83301 -40.833 -23.5 -56.5s-34.5 -23.5 -56.5 -23.5s-40.833 7.83301 -56.5 23.5s-23.5 34.5 -23.5 56.5
s7.83301 40.833 23.5 56.5s34.5 23.5 56.5 23.5s40.833 -7.83301 56.5 -23.5s23.5 -34.5 23.5 -56.5zM220 680c0 -22 -7.83301 -40.833 -23.5 -56.5s-34.5 -23.5 -56.5 -23.5s-40.833 7.83301 -56.5 23.5s-23.5 34.5 -23.5 56.5s7.83301 40.833 23.5 56.5
s34.5 23.5 56.5 23.5s40.833 -7.83301 56.5 -23.5s23.5 -34.5 23.5 -56.5z" />
    <glyph glyph-name="dotlessi" unicode="&#x131;" horiz-adv-x="288" 
d="M226 0h-164v538h164v-538z" />
    <glyph glyph-name="Lslash" unicode="&#x141;" horiz-adv-x="599" 
d="M569 0h-474v217l-60 -38v146l60 38v349h175v-239l113 71v-145l-113 -71v-172h299v-156z" />
    <glyph glyph-name="lslash" unicode="&#x142;" horiz-adv-x="348" 
d="M328 0h-87c-55.333 -0 -98 17.333 -128 52c-26 29.333 -39 65 -39 107v120l-49 -30v137l49 30v296h164v-198l49 30v-137l-49 -30v-206c0 -22 11 -33 33 -33h57v-138z" />
    <glyph glyph-name="OE" unicode="&#x152;" horiz-adv-x="952" 
d="M900 0h-484.002v26c-22.667 -21.333 -56.667 -32 -102 -32c-78 0 -142.333 25.333 -193 76c-32.667 32.667 -53.667 76 -63 130c-6 32 -9 84 -9 156s3 124 9 156c9.33301 54 30.333 97.333 63 130c50.667 50.667 115.334 76 194.001 76
c44.667 0 78.334 -10.667 101.001 -32v26h484v-156h-309v-119h264v-156h-264v-125h309v-156zM415.998 356c0 94 -8.66895 152.333 -26.002 175c-16 20.667 -39.333 31 -70 31s-54 -10.333 -70 -31c-17.333 -22.667 -26 -81 -26 -175c0 -93.333 8.33301 -151 25 -173
s40.334 -33 71.001 -33s54.334 11 71.001 33s25 79.667 25 173z" />
    <glyph glyph-name="oe" unicode="&#x153;" horiz-adv-x="864" 
d="M826 216l-322.001 -0.000976562c0 -23.333 8.33301 -42.666 25 -57.999c17.333 -17.333 40.666 -26 69.999 -26c44 0 81 15 111 45l98 -98c-29.333 -29.333 -58.666 -50.333 -87.999 -63c-33.333 -14.667 -73.666 -22 -120.999 -22c-72.667 0 -129.667 16.667 -171 50
c-40.667 -33.333 -91.667 -50 -153 -50c-72.667 0 -130.334 23 -173.001 69c-22.667 24 -38.167 51 -46.5 81s-12.5 71.667 -12.5 125s4.16699 95 12.5 125s23.833 57 46.5 81c42.667 46 100.334 69 173.001 69c62.667 0 114.667 -17.667 156 -53
c40.667 35.333 91.667 53 153 53c75.333 0 135.333 -25 180 -75c41.333 -46.667 62 -106.667 62 -180v-73zM663.999 324.999c0 25.333 -7.16602 45.667 -21.499 61s-33.833 23 -58.5 23c-34.667 0 -58.334 -14 -71.001 -42c-6 -13.333 -9 -27.333 -9 -42h160zM343 269
c0 40 -2.33301 67.667 -7 83c-10 29.333 -30.333 44 -61 44s-51 -14.667 -61 -44c-4.66699 -15.333 -7 -43 -7 -83s2.33301 -67.667 7 -83c10 -29.333 30.333 -44 61 -44s51 14.667 61 44c4.66699 15.333 7 43 7 83z" />
    <glyph glyph-name="Scaron" unicode="&#x160;" horiz-adv-x="593" 
d="M550 218c0 -70 -26.999 -125.333 -80.999 -166c-50.667 -38.667 -115.334 -58 -194.001 -58c-119.333 0 -209.333 31.333 -270 94l112 112c33.333 -33.333 86.333 -50 159 -50c68 0 102 21.333 102 64c0 34.667 -20.333 55 -61 61l-86 12c-128 18 -192 86.667 -192 206
c0 66 23.5 120 70.5 162s110.167 63 189.5 63c103.333 0 183.333 -28.333 240 -85l-110 -110c-28 28 -73 42 -135 42c-28 0 -50 -7 -66 -21c-13.333 -12.667 -20 -27.667 -20 -45c0 -12.667 5 -24 15 -34s26 -16.667 48 -20l86 -12c65.333 -9.33301 113.833 -31 145.5 -65
s47.5 -84 47.5 -150zM496.001 961l-136 -179h-126l-136 179h120l79 -83l79 83h120z" />
    <glyph glyph-name="scaron" unicode="&#x161;" horiz-adv-x="504" 
d="M477 176c0 -60 -23.334 -106.332 -70.001 -138.999c-41.333 -28.667 -95.666 -43 -162.999 -43c-51.333 0 -91.333 3.66699 -120 11c-42.667 11.333 -80.667 33.666 -114 66.999l106 106c30 -30 73.667 -45 131 -45c46.667 0 70 11.667 70 35c0 20 -13 31.333 -39 34
l-83 8c-104 10 -156 62 -156 156c0 56 22.333 100.667 67 134c40 29.333 89 44 147 44c97.333 0 168 -22 212 -66l-101 -101c-21.333 21.333 -59.333 32 -114 32c-35.333 0 -53 -10.333 -53 -31c0 -18 11.667 -28 35 -30l83 -8c54 -5.33301 95 -23.333 123 -54
c26 -28 39 -64.667 39 -110zM451.999 789.001l-136 -179h-126l-136 179h120l79 -83l79 83h120z" />
    <glyph glyph-name="Ydieresis" unicode="&#x178;" horiz-adv-x="605" 
d="M605 712l-215 -422v-290h-175v290l-215 422h191l112 -256l111 256h191zM499 852c0 -22 -7.83301 -40.833 -23.5 -56.5s-34.5 -23.5 -56.5 -23.5s-40.833 7.83301 -56.5 23.5s-23.5 34.5 -23.5 56.5s7.83301 40.833 23.5 56.5s34.5 23.5 56.5 23.5
s40.833 -7.83301 56.5 -23.5s23.5 -34.5 23.5 -56.5zM265 852c0 -22 -7.83301 -40.833 -23.5 -56.5s-34.5 -23.5 -56.5 -23.5s-40.833 7.83301 -56.5 23.5s-23.5 34.5 -23.5 56.5s7.83301 40.833 23.5 56.5s34.5 23.5 56.5 23.5s40.833 -7.83301 56.5 -23.5
s23.5 -34.5 23.5 -56.5z" />
    <glyph glyph-name="Zcaron" unicode="&#x17d;" horiz-adv-x="543" 
d="M513 0h-483v136l273 420h-261v156h471v-136l-274 -420h274v-156zM472 961l-136 -179h-126l-136 179h120l79 -83l79 83h120z" />
    <glyph glyph-name="zcaron" unicode="&#x17e;" horiz-adv-x="489" 
d="M449 0h-419v121l205 269h-193v148h407v-121l-209 -269h209v-148zM444 789l-136 -179h-126l-136 179h120l79 -83l79 83h120z" />
    <glyph glyph-name="florin" unicode="&#x192;" horiz-adv-x="441" 
d="M411 585h-80c-22 0 -35 -11 -39 -33l-26 -148h90v-126h-112l-80 -452h-164l80 452h-49v126h71l28 160c7.33301 42 26.666 78 57.999 108c36.667 34.667 82.334 51.667 137.001 51l86 -1v-137z" />
    <glyph glyph-name="circumflex" unicode="&#x2c6;" 
d="M449 610h-120l-79 83l-79 -83h-120l136 179h126z" />
    <glyph glyph-name="caron" unicode="&#x2c7;" 
d="M449 789l-136 -179h-126l-136 179h120l79 -83l79 83h120z" />
    <glyph glyph-name="breve" unicode="&#x2d8;" 
d="M414 750c-1.33301 -54.667 -19.333 -95.667 -54 -123c-29.333 -22.667 -66 -34 -110 -34s-80.667 11.333 -110 34c-34.667 27.333 -52.667 68.333 -54 123h106c2.66699 -31.333 22 -47 58 -47s55.333 15.667 58 47h106z" />
    <glyph glyph-name="dotaccent" unicode="&#x2d9;" 
d="M332 593h-164v125h164v-125z" />
    <glyph glyph-name="ring" unicode="&#x2da;" 
d="M388 731c0 -38 -13.5 -70.499 -40.5 -97.499s-59.5 -40.5 -97.5 -40.5s-70.5 13.5 -97.5 40.5s-40.5 59.5 -40.5 97.5s13.5 70.5 40.5 97.5s59.5 40.5 97.5 40.5s70.5 -13.333 97.5 -40s40.5 -59.334 40.5 -98.001zM302 731.001c0 14 -5.16699 26.167 -15.5 36.5
s-22.5 15.5 -36.5 15.5s-26.167 -5.16699 -36.5 -15.5s-15.5 -22.5 -15.5 -36.5s5.16699 -26.167 15.5 -36.5s22.5 -15.5 36.5 -15.5s26.167 5.16699 36.5 15.5s15.5 22.5 15.5 36.5z" />
    <glyph glyph-name="ogonek" unicode="&#x2db;" 
d="M341 -200h-146l-36 144h115z" />
    <glyph glyph-name="tilde" unicode="&#x2dc;" 
d="M443 683c-42 -42 -82.999 -63 -122.999 -63c-29.333 0 -56.333 7.33301 -81 22c-19.333 11.333 -38 17 -56 17c-20.667 0 -40 -9 -58 -27l-68 69c42 42 82.667 63 122 63c29.333 0 56.333 -7.33301 81 -22c19.333 -11.333 37.666 -17 54.999 -17c20.667 0 40 9 58 27z
" />
    <glyph glyph-name="hungarumlaut" unicode="&#x2dd;" 
d="M475 790l-118 -180h-99l49 180h168zM242 790l-117 -180h-100l49 180h168z" />
    <glyph glyph-name="Delta" unicode="&#x394;" horiz-adv-x="653" 
d="M653 0h-653l259 712h135zM424 146l-93 296l-99 -296h192z" />
    <glyph glyph-name="Delta" unicode="&#x2206;" horiz-adv-x="653" 
d="M653 0h-653l259 712h135zM424 146l-93 296l-99 -296h192z" />
    <glyph glyph-name="Omega" unicode="&#x3a9;" horiz-adv-x="640" 
d="M591 0h-232.996v136c14 6.66699 24.667 15 32 25c17.333 22.667 26 84.334 26 185.001c0 99.333 -8.5 160.166 -25.5 182.499s-40.5 33.5 -70.5 33.5s-53.5 -11.167 -70.5 -33.5s-25.5 -83.166 -25.5 -182.499c0 -100.667 8.66699 -162.334 26 -185.001
c7.33301 -10 18 -18.333 32 -25v-136h-233v156h45c-10.667 13.333 -19 29.333 -25 48c-13.333 40.667 -20 91.334 -20 152.001c0 72.667 2.66699 123.667 8 153c9.33301 52.667 30.666 95.667 63.999 129c53.333 53.333 119.666 80 198.999 80s145.666 -26.667 198.999 -80
c33.333 -33.333 54.666 -76.333 63.999 -129c5.33301 -29.333 8 -80.333 8 -153c0 -60.667 -6.66699 -111.334 -20 -152.001c-6 -18.667 -14.333 -34.667 -25 -48h45v-156z" />
    <glyph glyph-name="Omega" unicode="&#x2126;" horiz-adv-x="640" 
d="M591 0h-232.996v136c14 6.66699 24.667 15 32 25c17.333 22.667 26 84.334 26 185.001c0 99.333 -8.5 160.166 -25.5 182.499s-40.5 33.5 -70.5 33.5s-53.5 -11.167 -70.5 -33.5s-25.5 -83.166 -25.5 -182.499c0 -100.667 8.66699 -162.334 26 -185.001
c7.33301 -10 18 -18.333 32 -25v-136h-233v156h45c-10.667 13.333 -19 29.333 -25 48c-13.333 40.667 -20 91.334 -20 152.001c0 72.667 2.66699 123.667 8 153c9.33301 52.667 30.666 95.667 63.999 129c53.333 53.333 119.666 80 198.999 80s145.666 -26.667 198.999 -80
c33.333 -33.333 54.666 -76.333 63.999 -129c5.33301 -29.333 8 -80.333 8 -153c0 -60.667 -6.66699 -111.334 -20 -152.001c-6 -18.667 -14.333 -34.667 -25 -48h45v-156z" />
    <glyph glyph-name="pi" unicode="&#x3c0;" horiz-adv-x="592" 
d="M530 0h-164v382h-140v-382h-164v538h468v-538z" />
    <glyph glyph-name="endash" unicode="&#x2013;" horiz-adv-x="556" 
d="M507 218h-458v154h458v-154z" />
    <glyph glyph-name="emdash" unicode="&#x2014;" horiz-adv-x="1093" 
d="M1044 220h-995v158h995v-158z" />
    <glyph glyph-name="quoteleft" unicode="&#x2018;" horiz-adv-x="278" 
d="M221 566h-164v146l164 120v-266z" />
    <glyph glyph-name="quoteright" unicode="&#x2019;" horiz-adv-x="278" 
d="M221 565l-164 -118v265h164v-147z" />
    <glyph glyph-name="quotesinglbase" unicode="&#x201a;" horiz-adv-x="276" 
d="M221 0l-164 -118v265h164v-147z" />
    <glyph glyph-name="quotedblleft" unicode="&#x201c;" horiz-adv-x="511" 
d="M454 566h-164v146l164 120v-266zM220 566h-163v146l163 120v-266z" />
    <glyph glyph-name="quotedblright" unicode="&#x201d;" horiz-adv-x="511" 
d="M454 565l-164 -118v265h164v-147zM220 565l-163 -118v265h163v-147z" />
    <glyph glyph-name="quotedblbase" unicode="&#x201e;" horiz-adv-x="514" 
d="M454 0l-164 -118v265h164v-147zM220 0l-163 -118v265h163v-147z" />
    <glyph glyph-name="dagger" unicode="&#x2020;" horiz-adv-x="564" 
d="M517 390h-153v-390h-164v390h-153v148h153v174h164v-174h153v-148z" />
    <glyph glyph-name="daggerdbl" unicode="&#x2021;" horiz-adv-x="564" 
d="M517 0h-153v-174h-164v174h-153v148h153v242h-153v148h153v174h164v-174h153v-148h-153v-242h153v-148z" />
    <glyph glyph-name="bullet" unicode="&#x2022;" horiz-adv-x="470" 
d="M398 334c0 -44.667 -15.833 -83 -47.5 -115s-70.167 -48 -115.5 -48c-44.667 0 -83 16 -115 48s-48 70.333 -48 115c0 45.333 16 83.833 48 115.5s70.333 47.5 115 47.5c45.333 0 83.833 -15.833 115.5 -47.5s47.5 -70.167 47.5 -115.5z" />
    <glyph glyph-name="ellipsis" unicode="&#x2026;" horiz-adv-x="899" 
d="M850 102c0 -28.667 -10.167 -53.334 -30.5 -74.001s-45.166 -31 -74.499 -31c-28.667 0 -53.334 10.333 -74.001 31s-31 45.334 -31 74.001c0 29.333 10.333 54.166 31 74.499s45.334 30.5 74.001 30.5c29.333 0 54.166 -10.167 74.499 -30.5s30.5 -45.166 30.5 -74.499z
M554 102c0 -28.667 -10.1689 -53.3359 -30.502 -74.0029s-44.833 -31 -73.5 -31c-29.333 0 -54.333 10.333 -75 31s-31 45.334 -31 74.001s10.333 53.334 31 74.001s45.334 31 74.001 31s53.334 -10.167 74.001 -30.5s31 -45.166 31 -74.499zM258.998 101.998
c0 -28.667 -10.167 -53.334 -30.5 -74.001s-45.166 -31 -74.499 -31c-28.667 0 -53.334 10.333 -74.001 31s-31 45.334 -31 74.001c0 29.333 10.333 54.166 31 74.499s45.334 30.5 74.001 30.5c29.333 0 54.166 -10.167 74.499 -30.5s30.5 -45.166 30.5 -74.499z" />
    <glyph glyph-name="perthousand" unicode="&#x2030;" horiz-adv-x="1229" 
d="M1184 133c0 -44.667 -15.333 -79.667 -46 -105c-27.333 -22.667 -62.333 -34 -105 -34s-77.667 11.333 -105 34c-30.667 25.333 -46 60.333 -46 105v95c0 44.667 15.333 79.667 46 105c27.333 22.667 62.333 34 105 34s77.667 -11.333 105 -34
c30.667 -25.333 46 -60.333 46 -105v-95zM812 133c0 -44.667 -15.333 -79.667 -46 -105c-27.333 -22.667 -62.333 -34 -105 -34s-77.667 11.333 -105 34c-30.667 25.333 -46 60.333 -46 105v95c0 44.667 15.333 79.667 46 105c27.333 22.667 62.333 34 105 34
s77.667 -11.333 105 -34c30.667 -25.333 46 -60.333 46 -105v-95zM661 712l-339 -712h-126l339 712h126zM347 484c0 -44.667 -15.333 -79.667 -46 -105c-27.333 -22.667 -62.333 -34 -105 -34s-77.667 11.333 -105 34c-30.667 25.333 -46 60.333 -46 105v95
c0 44.667 15.333 79.667 46 105c27.333 22.667 62.333 34 105 34s77.667 -11.333 105 -34c30.667 -25.333 46 -60.333 46 -105v-95zM1068 137v87c0 26 -11.667 39 -35 39s-35 -13 -35 -39v-87c0 -26 11.667 -39 35 -39s35 13 35 39zM696 137v87c0 26 -11.667 39 -35 39
s-35 -13 -35 -39v-87c0 -26 11.667 -39 35 -39s35 13 35 39zM231 488v87c0 26 -11.667 39 -35 39s-35 -13 -35 -39v-87c0 -26 11.667 -39 35 -39s35 13 35 39z" />
    <glyph glyph-name="guilsinglleft" unicode="&#x2039;" horiz-adv-x="363" 
d="M303 9l-273 271l273 270v-193l-79 -77l79 -78v-193z" />
    <glyph glyph-name="guilsinglright" unicode="&#x203a;" horiz-adv-x="363" 
d="M333 280l-273 -271v193l80 78l-80 77v193z" />
    <glyph glyph-name="fraction" unicode="&#x2044;" horiz-adv-x="221" 
d="M343 712l-339 -712h-126l339 712h126z" />
    <glyph glyph-name="trademark" unicode="&#x2122;" horiz-adv-x="973" 
d="M906 285h-117v219l-67 -131h-100l-67 131v-219h-117v427h117l117 -210l117 210h117v-427zM377 608h-105v-323h-116v323h-105v104h326v-104z" />
    <glyph glyph-name="partialdiff" unicode="&#x2202;" horiz-adv-x="561" 
d="M499 259c0 -48 -3.33203 -84.9971 -9.99902 -110.997c-9.33301 -38 -27.666 -70 -54.999 -96c-40.667 -38.667 -93.667 -58 -159 -58c-70 0 -125.667 22 -167 66c-22 23.333 -37 49.5 -45 78.5s-12 69.167 -12 120.5s4.16699 91.666 12.5 120.999
s23.166 55.666 44.499 78.999c40.667 43.333 95 65 163 65c26 0 47 -4 63 -12v1c0 11.333 -5.33301 23.666 -16 36.999c-16 20 -39.333 30 -70 30c-38.667 0 -69.334 -11.333 -92.001 -34l-102 102c46.667 46.667 114 70 202 70c79.333 0 140.333 -23.333 183 -70
c40 -44 60 -103.667 60 -179v-210zM335.001 259.003c0 37.333 -2 62.666 -6 75.999c-8.66699 27.333 -26.667 41 -54 41s-45.333 -13.667 -54 -41c-4 -13.333 -6 -38.666 -6 -75.999s2 -62.666 6 -75.999c8.66699 -27.333 26.667 -41 54 -41s45.333 13.667 54 41
c4 13.333 6 38.666 6 75.999z" />
    <glyph glyph-name="product" unicode="&#x220f;" horiz-adv-x="680" 
d="M608 -174h-175v779h-186v-779h-175v934h536v-934z" />
    <glyph glyph-name="summation" unicode="&#x2211;" horiz-adv-x="553" 
d="M523 -176h-493v136l181 342l-177 322v136h484v-156h-278l118 -224v-163l-126 -237h291v-156z" />
    <glyph glyph-name="radical" unicode="&#x221a;" horiz-adv-x="616" 
d="M586 556h-94l-184 -556h-130l-178 538h177l67 -224l118 398h224v-156z" />
    <glyph glyph-name="infinity" unicode="&#x221e;" horiz-adv-x="876" 
d="M829 295c0 -60 -17.333 -108.667 -52 -146c-37.333 -40 -89.666 -60 -156.999 -60s-128 29.333 -182 88c-54 -58.667 -114.667 -88 -182 -88s-119.666 20 -156.999 60c-34.667 37.333 -52 86 -52 146s17.333 108.667 52 146c37.333 40 89.666 60 156.999 60
s128 -29.333 182 -88c54 58.667 114.667 88 182 88s119.666 -20 156.999 -60c34.667 -37.333 52 -86 52 -146zM669 290c0 32.667 -16 49 -48 49c-18.667 0 -41.667 -16.333 -69 -49c27.333 -32.667 50.333 -49 69 -49c32 0 48 16.333 48 49zM324 290
c-27.333 32.667 -50.333 49 -69 49c-32 0 -48 -16.333 -48 -49s16 -49 48 -49c18.667 0 41.667 16.333 69 49z" />
    <glyph glyph-name="integral" unicode="&#x222b;" horiz-adv-x="560" 
d="M490 592h-55c-46 0 -69 -22 -69 -66v-488c0 -66 -21 -117.333 -63 -154c-40 -34 -93.667 -51 -161 -51h-73v138h55c46 0 69 22 69 66v488c0 66 21 117.333 63 154c40 34 93.667 51 161 51h73v-138z" />
    <glyph glyph-name="approxequal" unicode="&#x2248;" horiz-adv-x="646" 
d="M616 408c-64 -64 -126.333 -96 -187 -96c-43.333 0 -84.333 11.333 -123 34c-28.667 16.667 -56.667 25 -84 25c-31.333 0 -60.666 -13.667 -87.999 -41l-104 104c34 34 64 58 90 72c29.333 16 61 24 95 24c43.333 0 84.333 -11.333 123 -34
c28.667 -16.667 56.667 -25 84 -25c31.333 0 60.666 13.667 87.999 41zM616 154c-34 -34 -64 -58 -90 -72c-29.333 -16 -61 -24 -95 -24c-43.333 0 -84.333 11.333 -123 34c-28.667 16.667 -56.667 25 -84 25c-31.333 0 -60.666 -13.667 -87.999 -41l-106 104
c64 64 126.333 96 187 96c43.333 0 84.333 -11.333 123 -34c28.667 -16.667 56.667 -25 84 -25c31.333 0 60.666 13.667 87.999 41z" />
    <glyph glyph-name="approxequal" unicode="&#x22f2;" horiz-adv-x="646" 
d="M616 408c-64 -64 -126.333 -96 -187 -96c-43.333 0 -84.333 11.333 -123 34c-28.667 16.667 -56.667 25 -84 25c-31.333 0 -60.666 -13.667 -87.999 -41l-104 104c34 34 64 58 90 72c29.333 16 61 24 95 24c43.333 0 84.333 -11.333 123 -34
c28.667 -16.667 56.667 -25 84 -25c31.333 0 60.666 13.667 87.999 41zM616 154c-34 -34 -64 -58 -90 -72c-29.333 -16 -61 -24 -95 -24c-43.333 0 -84.333 11.333 -123 34c-28.667 16.667 -56.667 25 -84 25c-31.333 0 -60.666 -13.667 -87.999 -41l-106 104
c64 64 126.333 96 187 96c43.333 0 84.333 -11.333 123 -34c28.667 -16.667 56.667 -25 84 -25c31.333 0 60.666 13.667 87.999 41z" />
    <glyph glyph-name="notequal" unicode="&#x2260;" horiz-adv-x="640" 
d="M591 96h-340l-103 -140l-99 74l48 66h-48v154h161l66 90h-227v154h340l103 140l99 -74l-48 -66h48v-154h-161l-66 -90h227v-154z" />
    <glyph glyph-name="lessequal" unicode="&#x2264;" horiz-adv-x="1027" 
d="M897 516l-462 -462l427 2l-145 -145h-534v534l145 145l-2 -427l462 462z" />
    <glyph glyph-name="greaterequal" unicode="&#x2265;" horiz-adv-x="1027" 
d="M843 -89h-533l-145 145l427 -3l-463 463l109 109l463 -463l-3 427l145 -145v-533z" />
    <glyph glyph-name="lozenge" unicode="&#x25ca;" horiz-adv-x="628" 
d="M581 334l-267 -368l-267 368l267 368zM396 334l-82 112l-82 -112l82 -112z" />
    <glyph glyph-name="fi" unicode="&#xf001;" horiz-adv-x="626" 
d="M582 662c0 -27.333 -9.83301 -50.833 -29.5 -70.5s-43.167 -29.5 -70.5 -29.5s-50.833 9.83301 -70.5 29.5s-29.5 43.167 -29.5 70.5s9.83301 50.833 29.5 70.5s43.167 29.5 70.5 29.5s50.833 -9.83301 70.5 -29.5s29.5 -43.167 29.5 -70.5zM564 0h-164v517h164v-517z
M328 391h-90v-391h-164v391h-49v126h49v47c0 42 13 77.667 39 107c30 34.667 72.667 52 128 52h87v-138h-57c-22 0 -33 -11 -33 -33v-35h90v-126z" />
    <glyph glyph-name="fl" unicode="&#xf002;" horiz-adv-x="674" 
d="M654 0h-87c-55.333 -0 -98 17.333 -128 52c-26 29.333 -39 65 -39 107v553h164v-541c0 -22 11 -33 33 -33h57v-138zM328 391h-90v-391h-164v391h-49v126h49v47c0 42 13 77.667 39 107c30 34.667 72.667 52 128 52h87v-138h-57c-22 0 -33 -11 -33 -33v-35h90v-126z" />
    <glyph glyph-name=".null" horiz-adv-x="0" 
 />
    <glyph glyph-name="nonmarkingreturn" horiz-adv-x="222" 
 />
  </font>
</defs>
</svg>
