<?xml version="1.0" encoding="UTF-8"?>
<svg width="47px" height="20px" viewBox="0 0 47 20" version="1.1" xmlns="http://www.w3.org/2000/svg" xmlns:xlink="http://www.w3.org/1999/xlink">
    <!-- Generator: Sketch 46.2 (44496) - http://www.bohemiancoding.com/sketch -->
    <title>Group 17</title>
    <desc>Created with Sketch.</desc>
    <defs></defs>
    <g id="Final-Design" stroke="none" stroke-width="1" fill="none" fill-rule="evenodd" opacity="0.25">
        <g id="Home---Final" transform="translate(-630.000000, -945.000000)" fill-rule="nonzero" fill="#000000">
            <g id="Group-17" transform="translate(630.000000, 945.000000)">
                <path d="M17.4166667,16.0833333 L15.65,16.0833333 L15.65,15.05 C14.9833333,15.8333333 14.4,16.2166667 13.7916667,16.2166667 C13.2416667,16.2166667 12.875,15.9666667 12.675,15.4916667 C12.575,15.2 12.4916667,14.7583333 12.4916667,14.1 L12.4916667,6.58333333 L14.2583333,6.58333333 L14.2583333,14.3 C14.3,14.55 14.4083333,14.65 14.6333333,14.65 C14.9666667,14.65 15.2833333,14.3416667 15.6583333,13.8166667 L15.6583333,6.58333333 L17.425,6.58333333 L17.425,16.0833333 L17.4166667,16.0833333 Z M11.1666667,9.68333333 C11.1666667,8.66666667 10.975,7.90833333 10.6166667,7.43333333 C10.15,6.76666667 9.40833333,6.51666667 8.65833333,6.51666667 C7.80833333,6.51666667 7.15833333,6.76666667 6.7,7.43333333 C6.33333333,7.90833333 6.14166667,8.68333333 6.14166667,9.68333333 L6.14166667,13.075 C6.14166667,14.075 6.30833333,14.775 6.675,15.2416667 C7.14166667,15.9083333 7.90833333,16.2416667 8.65,16.2416667 C9.4,16.2416667 10.1666667,15.9083333 10.65,15.2416667 C10.9833333,14.775 11.15,14.075 11.15,13.075 L11.15,9.66666667 L11.1666667,9.68333333 Z M9.41666667,13.2666667 C9.5,14.2083333 9.20833333,14.6833333 8.66666667,14.6833333 C8.11666667,14.6833333 7.83333333,14.2083333 7.91666667,13.2666667 L7.91666667,9.5 C7.83333333,8.55833333 8.11666667,8.11666667 8.66666667,8.11666667 C9.20833333,8.11666667 9.5,8.55833333 9.41666667,9.5 L9.41666667,13.2666667 Z M4.19166667,10.9166667 L4.19166667,16.0833333 L2.33333333,16.0833333 L2.33333333,10.9166667 C2.33333333,10.9166667 0.391666667,4.55 0,3.36666667 L1.95833333,3.36666667 L3.26666667,8.33333333 L4.56666667,3.375 L6.51666667,3.375 L4.18333333,10.9083333 L4.19166667,10.9166667 Z" id="Shape"></path>
                <path d="M35.6166667,8.08333333 C35.3416667,8.08333333 35.0333333,8.25 34.7416667,8.51666667 L34.7416667,14.2333333 C35.0166667,14.5166667 35.325,14.65 35.6083333,14.65 C36.1083333,14.65 36.3166667,14.3 36.3166667,13.3583333 L36.3166667,9.30833333 C36.3166667,8.36666667 36.0916667,8.09166667 35.6,8.09166667 M42.5666667,9.225 C42.5666667,8.35 42.3416667,8.09166667 41.7833333,8.09166667 C41.225,8.09166667 40.9833333,8.34166667 40.9833333,9.21666667 L40.9833333,10.2583333 L42.5666667,10.2583333 L42.5666667,9.23333333" id="Shape"></path>
                <path d="M46.3916667,4.4 C46.3916667,4.4 46.1166667,2.48333333 45.2833333,1.625 C44.225,0.5 43.0333333,0.5 42.5,0.441666667 C38.6083333,0.166666667 32.7666667,0.166666667 32.7666667,0.166666667 L32.75,0.166666667 C32.75,0.166666667 26.9166667,0.166666667 23.025,0.441666667 C22.4833333,0.508333333 21.2916667,0.508333333 20.2333333,1.625 C19.4,2.475 19.1333333,4.4 19.1333333,4.4 C19.1333333,4.4 18.85,6.66666667 18.85,8.93333333 L18.85,11.0583333 C18.85,13.325 19.1333333,15.5833333 19.1333333,15.5833333 C19.1333333,15.5833333 19.4,17.5166667 20.2333333,18.3666667 C21.2916667,19.4833333 22.6833333,19.45 23.3,19.5583333 C25.525,19.775 32.7583333,19.8416667 32.7583333,19.8416667 C32.7583333,19.8416667 38.6166667,19.8416667 42.5083333,19.5583333 C43.05,19.4916667 44.2333333,19.4916667 45.2916667,18.375 C46.125,17.525 46.4,15.5916667 46.4,15.5916667 C46.4,15.5916667 46.6666667,13.3333333 46.6666667,11.0583333 L46.6666667,8.93333333 C46.6666667,6.66666667 46.3916667,4.4 46.3916667,4.4 Z M24.9583333,16.0833333 L23.1,16.0833333 L23.1,5.25 L21.1416667,5.25 L21.1416667,3.48333333 L27.0083333,3.48333333 L27.0083333,5.25 L24.9666667,5.25 L24.9666667,16.0833333 L24.9583333,16.0833333 Z M31.6666667,16.0833333 L29.9,16.0833333 L29.9,15.05 C29.2333333,15.8333333 28.65,16.2166667 28.0416667,16.2166667 C27.4916667,16.2166667 27.125,15.9666667 26.925,15.4916667 C26.825,15.2 26.7416667,14.7583333 26.7416667,14.1 L26.7416667,6.66666667 L28.5083333,6.66666667 L28.5083333,14.3083333 C28.55,14.5583333 28.6583333,14.6583333 28.8833333,14.6583333 C29.2166667,14.6583333 29.5333333,14.35 29.9083333,13.825 L29.9083333,6.66666667 L31.6666667,6.66666667 L31.6666667,16.0833333 Z M38.0833333,13.2666667 C38.0833333,14.1333333 38.025,14.75 37.9166667,15.15 C37.6833333,15.85 37.1916667,16.2083333 36.525,16.2083333 C35.925,16.2083333 35.3083333,15.8416667 34.7416667,15.1416667 L34.7416667,16.0916667 L33.0583333,16.0916667 L33.0583333,3.48333333 L34.725,3.48333333 L34.725,7.58333333 C35.275,6.91666667 35.8916667,6.525 36.5166667,6.525 C37.1833333,6.525 37.6333333,6.91666667 37.85,7.60833333 C37.975,8 38.0833333,8.60833333 38.0833333,9.5 L38.0833333,13.2666667 L38.0833333,13.2666667 Z M41.8,14.6583333 C42.2166667,14.6583333 42.4666667,14.425 42.55,13.9666667 C42.5666667,13.8833333 42.5666667,13.4666667 42.5666667,12.7833333 L44.3333333,12.7833333 L44.3333333,13.05 C44.3333333,13.6 44.2916667,13.9916667 44.275,14.1583333 C44.2166667,14.5416667 44.0833333,14.8833333 43.8833333,15.1833333 C43.4166667,15.8666667 42.7166667,16.2 41.8416667,16.2 C40.9666667,16.2 40.3,15.8833333 39.8083333,15.2333333 C39.45,14.7583333 39.225,14.0666667 39.225,13.0666667 L39.225,9.76666667 C39.225,8.76666667 39.4333333,7.98333333 39.7916667,7.5 C40.275,6.85833333 40.9583333,6.51666667 41.8083333,6.51666667 C42.6583333,6.51666667 43.325,6.85 43.8083333,7.5 C44.1416667,7.98333333 44.35,8.71666667 44.35,9.725 L44.35,11.6666667 L41,11.6666667 L41,13.35 C41,14.225 41.25,14.6583333 41.8166667,14.6583333 L41.8,14.6583333 Z" id="Shape"></path>
            </g>
        </g>
    </g>
</svg>